<?xml version="1.0" standalone="no"?>
<!DOCTYPE svg PUBLIC "-//W3C//DTD SVG 20010904//EN" "http://www.w3.org/TR/2001/REC-SVG-20010904/DTD/svg10.dtd">
<svg version="1.0" xmlns="http://www.w3.org/2000/svg" width="1024.000000pt" height="1024.000000pt"
  viewBox="0 0 1024.000000 1024.000000" preserveAspectRatio="xMidYMid meet">
  <metadata>
    Created by potrace 1.14, written by Peter Selinger 2001-2017
  </metadata>
  <g transform="translate(0.000000,1024.000000) scale(0.100000,-0.100000)" fill="#060E23" stroke="none">
    <path d="M2050 10229 c-943 -97 -1741 -781 -1975 -1693 -76 -296 -69 8 -73
-3336 -2 -2137 0 -3031 8 -3120 42 -475 230 -921 543 -1286 298 -349 710 -606
1151 -719 296 -76 -8 -69 3336 -73 2137 -2 3031 0 3120 8 475 42 921 230 1286
543 349 298 606 710 719 1151 76 296 69 -8 73 3336 2 2137 0 3031 -8 3120 -42
475 -230 921 -543 1286 -298 349 -710 606 -1151 719 -297 76 13 69 -3371 71
-1667 1 -3068 -2 -3115 -7z m3395 -1399 c859 -79 1651 -441 2267 -1038 608
-589 986 -1344 1104 -2202 21 -157 30 -608 15 -781 -56 -636 -265 -1234 -619
-1762 -258 -385 -614 -744 -1002 -1009 -489 -334 -1047 -541 -1670 -620 -68
-8 -218 -13 -425 -13 -276 0 -343 4 -485 23 -459 63 -927 218 -1319 438 -957
537 -1631 1458 -1840 2515 -50 251 -62 366 -68 650 -10 481 40 827 183 1257
179 539 468 1017 862 1424 631 651 1465 1044 2377 1121 96 8 520 6 620 -3z" />
    <path d="M4860 8544 c-19 -2 -78 -9 -130 -14 -818 -91 -1601 -493 -2153 -1105
-486 -540 -764 -1152 -869 -1915 -17 -128 -17 -652 0 -780 74 -537 223 -970
481 -1395 509 -839 1372 -1429 2331 -1594 238 -41 302 -46 600 -46 299 0 363
5 600 46 737 128 1440 517 1943 1074 153 170 321 398 406 550 l22 40 -23 -29
c-13 -17 -70 -93 -128 -170 -161 -216 -402 -456 -627 -624 -288 -216 -664
-403 -1005 -502 -290 -83 -483 -111 -818 -117 -282 -6 -436 6 -660 48 -729
138 -1402 544 -1873 1129 -86 106 -239 335 -308 460 -170 309 -291 673 -352
1060 -18 117 -21 177 -21 450 0 364 13 476 89 775 309 1216 1319 2138 2558
2335 1010 160 2020 -169 2742 -894 193 -193 382 -440 500 -650 20 -37 40 -65
42 -62 3 3 -25 60 -62 128 -254 463 -557 814 -965 1122 -476 359 -1003 573
-1625 662 -104 15 -609 28 -695 18z" />
    <path d="M5185 7959 c-1240 -109 -2259 -985 -2550 -2192 -85 -353 -98 -791
-34 -1151 83 -464 274 -894 569 -1276 94 -122 358 -386 480 -480 449 -346 959
-549 1514 -601 161 -15 522 -6 666 16 552 85 1030 300 1450 653 133 111 401
392 375 392 -3 0 -27 -23 -52 -50 -56 -62 -209 -195 -323 -281 -360 -273 -823
-452 -1295 -500 -147 -15 -490 -6 -625 15 -572 91 -1062 339 -1461 737 -208
207 -360 421 -494 694 -121 245 -190 459 -236 729 -27 155 -37 511 -20 682 38
372 159 740 351 1065 211 357 554 702 902 909 865 515 1940 487 2773 -71 277
-186 530 -435 706 -696 56 -83 73 -96 32 -25 -348 605 -907 1064 -1568 1289
-363 123 -784 174 -1160 142z" />
    <path d="M5600 7394 c-331 -28 -605 -101 -875 -233 -722 -353 -1203 -1045
-1286 -1849 -16 -157 -6 -454 20 -607 127 -743 590 -1368 1256 -1696 224 -110
419 -172 682 -216 169 -28 535 -25 706 5 498 89 919 306 1261 648 150 149 301
349 386 509 35 67 26 57 -74 -79 -77 -105 -319 -345 -421 -418 -461 -326 -982
-454 -1520 -373 -889 135 -1593 855 -1711 1749 -24 184 -15 498 21 666 130
620 522 1137 1075 1419 269 137 542 207 851 218 592 21 1117 -191 1543 -622
130 -130 121 -104 -20 65 -367 437 -895 723 -1474 799 -85 11 -352 21 -420 15z" />
    <path d="M5820 6835 c-755 -104 -1340 -656 -1492 -1407 -20 -98 -23 -142 -22
-333 0 -189 3 -235 23 -325 98 -457 339 -831 706 -1095 109 -79 336 -194 463
-235 356 -114 736 -114 1091 0 130 42 356 155 471 237 122 87 326 291 413 413
82 116 195 341 236 471 65 208 75 281 75 539 0 207 -2 247 -22 339 -131 599
-516 1063 -1070 1287 -258 105 -597 147 -872 109z" />
  </g>
</svg>