<?xml version="1.0" encoding="utf-8"?>
<!-- Generator: Adobe Illustrator 24.1.2, SVG Export Plug-In . SVG Version: 6.00 Build 0)  -->
<svg version="1.1" id="Слой_1" xmlns="http://www.w3.org/2000/svg" xmlns:xlink="http://www.w3.org/1999/xlink" x="0px" y="0px"
	 viewBox="0 0 1024 1024" style="enable-background:new 0 0 1024 1024;" xml:space="preserve">
<style type="text/css">
	.st0{fill:#060E23;}
</style>
<g>
	<path class="st0" d="M409.2,714.5c-4.1-8.5-6.3-17.8-8.1-34.3c-0.5-4-1.1-9.9-1.4-12.9s-0.7-7.4-0.9-9.7s-0.4-4.2-0.6-4.2
		c-1.1,0-0.7,27.1,0.4,30.7c0.2,0.8,0.8,4.3,1.2,7.8c0.4,3.5,1.2,7.6,1.6,9.1c1.4,4.4,4.8,12.2,6.9,15.7c2,3.3,7.5,10.8,7.7,10.6
		c0.1-0.1-0.8-1.7-1.9-3.6C413,721.8,410.8,717.6,409.2,714.5z"/>
	<path class="st0" d="M308.1,290c0.6,0.6,52.3,1,61.2,0.5l6.2-0.4l-7.2-0.2C355,289.4,307.6,289.5,308.1,290z"/>
	<path class="st0" d="M366,476.7c1.3-1.1,1.5-5.7,1.7-30.7c0.1-13.9,0.1-26.9-0.1-28.7c-0.1-1.9-0.5-3.7-0.7-4
		c-0.3-0.6-0.5,6.6-0.5,30.5c-0.1,17.2-0.2,31.6-0.4,32.2C365.9,476.5,365.9,476.8,366,476.7z"/>
	<path class="st0" d="M459.8,334.5c0.1-0.1,0.1-0.2-0.2-0.2s-4.4-1.9-9.3-4.1c-9.7-4.5-13.7-6-18-6.5c-3.3-0.4-4.1-0.4-5.5,0
		c-0.8,0.2-0.3,0.4,1.8,0.6c4.3,0.5,8.1,1.6,13.7,4.2C450.5,332.3,459.1,335.4,459.8,334.5z"/>
	<path class="st0" d="M366.2,634.2c-0.3-0.5-0.3,0.2-0.2,2.2c0.1,1.6,0.4,11.6,0.5,22.3c0.3,19.2,0.6,23.6,1.2,18.6
		c0.4-3.2-0.1-30.3-0.7-37.2C366.8,637.2,366.4,634.6,366.2,634.2z"/>
	<path class="st0" d="M454.9,592.2c-0.4-22.9-0.9-56.3-1.1-74.2c-0.3-17.8-0.6-37.1-0.7-42.8l-0.2-10.3l-3.4-3.1
		c-4.2-3.9-9-7.1-13.1-8.8c-2.5-1.1-4-1.4-6.7-1.5c-3.9-0.1-4.2,0-7,2.7l-2,1.9v81.4c0,89.5,0.3,115.5,1.3,121.4
		c1,5.7,3.5,15.2,4.8,18.5c2.9,7.4,7.4,15.1,9.9,17c2,1.6,5.6,3.1,7.4,3.1c1.5,0,1.9-0.2,3.7-2.2c1.4-1.4,2.9-3.7,4.2-6.4
		c3.9-7.9,3.6-5.3,3.6-31.7C455.6,644.4,455.3,615.1,454.9,592.2z"/>
	<path class="st0" d="M347.2,523.4c-0.6,4.3-1.1,14.8-1.6,35.7c-0.2,6.8-0.2,6.9,0.4,4.1c0.7-3.4,1.2-12.8,1.8-30.8
		c0.3-7.3,0.4-13.3,0.3-13.5C348,518.9,347.6,520.9,347.2,523.4z"/>
	<path class="st0" d="M286.5,664.6c-3-0.9-15.3-1.2-17.9-0.4c-1.7,0.5-1.4,0.6,5.3,0.6c3.9,0,8.9,0.3,11.1,0.6
		C289.3,665.9,289.8,665.6,286.5,664.6z"/>
	<path class="st0" d="M279,560.4c0.1,0,0.4-8.9,0.6-19.7c0.3-10.8,0.4-20,0.3-20.4c-0.1-0.4-0.6,1.4-1,4.1c-0.6,4-0.8,7-0.7,15.6
		C278.2,549.5,278.6,560.8,279,560.4z"/>
	<path class="st0" d="M276.1,684.1c-2.1-0.9-9.4-1.6-8.3-0.9c0.3,0.2,1.2,0.4,2,0.4c0.8,0,3.6,0.7,6.3,1.6c2.6,0.9,4.9,1.6,5,1.5
		C281.3,686.5,278.7,685.1,276.1,684.1z"/>
	<path class="st0" d="M279.3,615.4c-0.1-4.6-0.3-9-0.5-9.8l-0.3-1.4l-0.3,1.6c-0.3,1.6,0.3,10.8,1,15.5
		C279.4,622.9,279.5,620.9,279.3,615.4z"/>
	<path class="st0" d="M340.5,701.3c-0.9-0.6-1.7-1.5-1.8-1.9c-0.1-0.8-0.7-0.5-0.7,0.4c0,0.6,3.7,3.2,4,2.9
		C342.1,702.6,341.5,702,340.5,701.3z"/>
	<path class="st0" d="M263,306.7c-3,0.2-2.5,0.3,3.5,0.3c4.7,0,6.9-0.1,6.5-0.3C272.4,306.3,269.1,306.3,263,306.7z"/>
	<path class="st0" d="M459.8,480c-0.5,1.6-1,40.3-0.7,48.9c0.1,4.3,0.6,10.4,1,13.7l0.8,5.9l0.1-29c0.1-21.4-0.1-30.6-0.4-34.8
		C460.2,481,460,479.3,459.8,480z"/>
	<path class="st0" d="M439.8,446.1c2.4,0.7,5.1,2.1,7.6,3.9l2,1.5l-2.2-2.1c-1.2-1.2-3.2-2.7-4.3-3.5c-2.1-1.5-5.2-2.2-6.3-1.5
		C435.9,444.9,436.6,445.2,439.8,446.1z"/>
	<path class="st0" d="M627.9,320.4c-4.5-1.9-4.9-2.1-4.9-1.5c0,0.8,13.2,7,13.7,6.5C637.1,325,632.1,322.2,627.9,320.4z"/>
	<path class="st0" d="M687.9,328.3c-5.8-8-6.5-8.8-6.5-8.4c-0.1,1.8,9,15,12.9,18.7l1.9,1.9l-1.6-2.6
		C693.7,336.4,690.7,332.1,687.9,328.3z"/>
	<path class="st0" d="M744.2,321.7c-5.3-5.2-6.1-5.2-2.3,0c6.5,8.7,14.1,16.5,15.5,16C758,337.5,748,325.3,744.2,321.7z"/>
	<path class="st0" d="M1023,208c-4.2-47.5-23-92.1-54.3-128.6c-29.8-34.9-71-60.6-115.1-71.9c-29.7-7.6,1.3-6.9-337.1-7.1
		C349.8,0.3,209.7,0.6,205,1.1C110.7,10.8,30.9,79.2,7.5,170.4C-0.1,200,0.6,169.6,0.2,504C0,717.7,0.2,807.1,1,816
		c4.2,47.5,23,92.1,54.3,128.6c29.8,34.9,71,60.6,115.1,71.9c29.6,7.6-0.8,6.9,333.6,7.3c213.7,0.2,303.1,0,312-0.8
		c47.5-4.2,92.1-23,128.6-54.3c34.9-29.8,60.6-71,71.9-115.1c7.6-29.6,6.9,0.8,7.3-333.6C1024,306.3,1023.8,216.9,1023,208z
		 M183.5,508.7c-0.4,0-3.3-0.9-6.2-2.1l-5.4-2.1l-1.7-2.7c-1-1.4-3.1-5-4.9-7.9c-1.8-2.9-3.3-5.1-3.4-5c-0.1,0,0.2,1.8,0.7,3.8
		c1,4.2,1.1,6.7,0.4,6.5c-0.3-0.1-1.2-1.2-2.1-2.4c-1.2-1.8-2.1-4-4.2-11.2c-1.4-4.9-2.6-9.2-2.5-9.5c0.1-0.4,0.7-0.2,2.2,0.7l2,1.3
		l-2.7-3c-3.2-3.6-4.5-5.3-4.5-5.7c0-1.5,7.3,1.9,15,7c4.7,3.1,11.9,9.5,11.4,10c-0.3,0.3-2.6-0.8-6.2-3c-4.3-2.6-6.4-3.8-6.4-3.6
		c0,0.1,3,2.4,6.7,5.1c4.8,3.5,6.9,5.4,7.6,6.5c0.9,1.5,4.1,12.4,4.8,15.7C184.3,508.5,184.3,508.7,183.5,508.7z M199.2,499.3
		c-1.7,5.1-3.9,10-4.5,10c-0.6,0-2.6-2.9-6.2-9c-4.1-6.8-3.7-7.3,1.7-2.4l2.3,2.1l-1.1-2c-0.6-1-2.7-3.4-4.5-5.2
		c-1.9-1.8-3.4-3.6-3.4-4c0-1,1.4-3.8,3.1-6.1c2-2.7,1.7-2.9-0.8-0.4c-3.9,3.7-3.9,3-0.2-5.9c3.5-8.3,4.4-10.4,4.8-10.4
		c0.2,0,0.8,0.8,1.5,1.7c0.6,0.9,1.2,1.6,1.3,1.5c0.1-0.1-0.1-1.3-0.4-2.6c-1.1-4.1-1.2-7.8-0.5-11.3c0.7-3.1,1.2-3.8,1.6-2.4
		c3.6,12.2,8.5,31.4,8.3,32.1c-0.2,0.5-0.9-0.6-3.4-5.2c-0.8-1.5-1.6-2.6-1.7-2.4c-0.1,0.3,0.7,2.7,1.9,5.4c1.7,4.5,1.9,5.4,1.9,8.3
		C200.9,493.8,200.6,495.2,199.2,499.3z M226,495.2c-0.8,1.8-3.1,4.9-3.6,4.9c-0.7,0-0.5-2.7,0.4-6.6c0.5-2,0.8-3.7,0.7-3.8
		c-0.1-0.1-2.4,3.3-5,7.6c-5.4,8.8-4.3,7.8-12.7,11c-2.2,0.8-4.2,1.4-4.4,1.2c-0.7-0.6,3.1-14.5,4.7-17.3c0.5-1.1,2.8-3,7.5-6.5
		c8.5-6.3,8.8-6.7,1.3-2.2c-7.2,4.4-8.8,4.8-5.6,1.6c4-4.3,15.6-12.3,20.6-14.3c4.2-1.8,5.3-1.2,2.9,1.5c-0.7,0.8-2.3,2.6-3.5,4
		l-2.2,2.5l2.1-1.3c1.2-0.7,2.2-1.2,2.4-1.1C231.7,476.6,226.8,493.4,226,495.2z M323.1,681.3c-0.6,1.7-20.3,28.4-22.6,30.7
		c-2.4,2.3-3.1,2-6-2.5c-4.2-6.6-11.1-13-17.2-16.2c-6.6-3.4-9.1-4.1-15-4.3c-8.9-0.3-15.2,1.5-20.1,6c-1.3,1.1-2.4,2-2.4,1.8
		c0-0.8,2.3-4.2,4-6c2.6-2.7,5.7-4.5,10.7-6.2l4.3-1.4l-3,0.2c-5.4,0.4-9.9,2.6-13.6,6.6c-4,4.3-5.4,8.3-5.2,14.4
		c0.1,2.8,0.4,4.4,1,5.8c1.2,2.5,4.2,5.7,7.2,7.5c1.3,0.8,2.3,1.6,2.2,1.7c-0.3,0.4-6-1.5-7.8-2.5c-6-3.5-8.7-10.5-7.6-19.4
		c0.6-4.7,2.5-9.2,6.3-15.5c6.9-11,16.8-18.2,29-20.9c4.6-1,14.9-0.8,19.8,0.4c9.9,2.5,20.6,7.6,31.4,14.9
		C322.3,678.9,323.6,680.3,323.1,681.3z M275,478.5c-1.9-2.4-2.5-4.1-2.9-8.6c-0.2-2.2-0.5-21.3-0.6-42.6c-0.3-52.3-0.5-68-1.2-68.9
		c-0.3-0.5-1.4-0.8-4.3-1c-3.4-0.3-3.9-0.4-4.7-1.4c-1-1.2-1.2-3.2-0.5-4.8c0.6-1.3,2.6-2.8,15.1-11.2c6-4,12.7-8.6,14.9-10.2
		c3.9-2.8,9.4-6,10.1-6c0.2,0,0.4,0.7,0.4,1.5v1.6l0.9-1.7c0.5-1,1.5-2.2,2.3-2.8c2.6-2,2.5-0.9-0.8,6.3
		c-6.5,14.2-7.4,17.4-9.6,34.4c-0.5,4.4-1.3,9.6-1.6,11.6c-0.4,2-0.6,4.3-0.6,5.1c0.1,1.3,0.1,1.3,0.6-0.7c0.3-1.1,1.5-4.7,2.6-8
		c1.2-3.2,2.1-6.1,2.1-6.4c0-0.9,2.5-8.5,2.9-8.9c0.6-0.6,0.1,8.8-0.7,13.5c-0.5,2.7-0.7,7.8-0.8,20.4c-0.1,9.2-0.1,15.3,0,13.5
		c0.2-4.6,1-11.3,1.4-12c0.2-0.4,0.4,0.1,0.6,1.7c0.5,3.6,0.4,225.2,0,229l-0.4,3.3l-0.3-7.4c-0.9-21.2-0.8-21.2-1.2,0
		c-0.3,14.8-0.5,20.4-0.9,21.3c-0.5,1.1-1,1.5-3.8,2.4c-3.8,1.2-4.4,1.3-5,0.2c-0.5-1-1.3-1-2.2,0c-0.4,0.5-1.4,1-2.2,1.2
		s-2.4,0.6-3.5,0.9c-1.3,0.4-2.5,1-3.4,2c-1.2,1.2-1.5,1.4-1.8,0.9c-0.2-0.3-0.4-0.8-0.4-1s-0.2-6-0.4-12.9
		c-0.2-6.9-0.6-13-0.8-13.6c-1-2.6-1.5-19.2-2.5-85.7c-0.4-25.3-0.4-25.6-1.4-29.5c-1.1-4.3-3.2-8.7-5.4-11.3
		c-2.5-3-8.5-6.7-14.1-8.8c-1.1-0.4-2-0.9-2-1.1c0-0.4,6.3-4.9,9.3-6.6c2.2-1.2,2.5-1.3,6.5-1.3h4.2l3.6,2.6l3.8,2.6L275,478.5z
		 M381.9,322.4l-2.2-2.5c-1.2-1.3-3.4-4-4.9-6l-2.7-3.6l-0.2,19.9c-0.2,11-0.3,45.1-0.4,75.8c0,30.7-0.2,62.8-0.4,71.3
		c-0.3,14.9-0.3,15.7-1.4,20.6c-1.4,6.2-1.5,9.4-0.7,32.9c0.2,8.9,0.7,26.5,0.9,39c0.2,13.1,0.7,26.6,1.1,31.9
		c0.6,7.6,0.7,15.7,0.7,48.4v39.2l-2.2,6.1c-2.7,7.8-3.4,8.9-6.1,9.6c-1.9,0.5-2.2,0.4-4.2-0.6c-1.2-0.6-2.4-1-2.6-0.9
		c-0.3,0.2-0.8,1.8-1.2,3.6c-0.6,3.4-1.4,4.9-3.2,5.8c-1,0.6-1.4,0.3-6.8-4c-2.5-2-5.5-4.2-6.7-4.8c-3.1-1.7-4-2.6-4-4.2
		c0-1.7,0.5-2.6,2.9-5.4c1.1-1.3,2.2-2.7,2.6-3.3c0.6-0.9,0.6-8.2,0.8-71.5c0.2-64.8,0.3-71.7,1.1-85.4c1-18.4,1.1-31,0.2-35
		c-1.1-4.8-1.4-28.9-1.4-110c0-75.1,0-76.1,0.8-77.3c0.4-0.6,1.1-1.6,1.5-2.2l0.7-1l-1.2,0.9c-2.1,1.5-5.3,3-7.6,3.5
		c-1.6,0.3-13.4,0.5-43.7,0.7c-40.8,0.2-41.5,0.2-44.6,1.1c-8.8,2.4-14.1,7.9-14.1,14.4c0,6.6,4.8,9.7,14.4,9.3
		c3.6-0.1,4.3-0.3,6.8-1.5c3.7-1.8,6.9-5,7.7-7.6l0.6-2l0.3,1.6c0.9,4.6-0.7,9-4.7,13c-5.7,5.7-15.5,8.4-22.7,6.2
		c-5.1-1.6-9.2-4.8-11.5-9.2c-1-1.9-1.1-2.5-1.1-6.6c0-4.1,0.1-4.7,1.1-6.8c1.4-3.1,4.4-6.9,7.9-10.3c4.3-4.2,19.5-16.5,27.1-21.9
		c7.9-5.8,11.6-9,14.2-12.6l1.8-2.6l2.7,1.8c1.4,1,3.7,2.2,5,2.7c5.6,2.1,5.8,2.1,56.3,2.3c61.7,0.2,62.1,0.2,76-4.3
		c3.5-1.2,6.5-2.1,6.7-2.1c0.1,0-4.6,3.6-10.5,8.1c-11.6,8.7-17,13.5-21,19c-2.6,3.6-5.2,8.8-6.8,13.2L381.9,322.4z M498.1,728.5
		c-1.1,3.5-2.2,6.3-2.4,6.3c-0.4,0-2.3-3-4.7-7.7c-1.2-2.2-3-4.9-4.3-6.3c-1.6-1.9-2.3-2.9-2.5-4.1c-0.4-2.1-0.8-2.6-1.7-1.7
		c-1.1,1-0.8,3.2,0.5,5.4c0.6,1.1,2,4.2,3.1,6.9c1,2.7,2.7,6.3,3.7,8c1.2,2.1,1.8,3.6,1.8,4.6c0,1.8-0.7,2.4-1,0.9
		c-0.1-0.5-0.3-1.4-0.4-2c-0.1-0.7-0.5-1.1-1.3-1.3c-3.6-0.8-3.5-0.6-7.7-11.4c-3.2-8.3-4.5-10.7-6.4-11.9c-1.2-0.8-1.6-1.3-1.6-2.2
		c0-1.3-1.8-4.4-4.3-7.7c-2-2.3-3.1-4.7-3.1-6.1c0-1.4-1.2-3.2-2.6-4.1c-2.5-1.5-2.5-1.5-2.2,5.8l0.2,6.7l-1-2.1
		c-0.7-1.5-1.3-4.1-1.9-8.1c-0.5-3.3-1-6-1.1-6c-0.1,0-6,13.4-13.1,29.8c-7.1,16.4-13.1,29.8-13.3,29.7c-0.8-0.3-1.1-2.9-1.3-13.4
		c-0.2-10.9-0.6-13.8-1.1-9.6c-0.2,2.3-3,13.9-4,17.1c-0.3,0.9-1,2-1.6,2.4c-1,0.8-1.2,0.8-2.6,0.1c-2.7-1.3-9-8.8-12.6-15.1
		c-2.8-4.9-7.4-14.6-9.1-19.2c-1.4-3.9-5.5-19.4-7-26.6c-0.6-2.9-0.7-8.2-0.8-46.2c-0.2-29.1-0.1-43.7,0.2-45.2
		c0.3-1.2,0.7-5.9,0.9-10.4c0.3-6.9,0.9-12.1,1.2-10.6c0,0.2,0.2,8.2,0.4,17.8c0.2,9.6,0.5,17.9,0.7,18.6c1.1,3.4,1.1-18.9,0.1-55.2
		c-0.8-26.8-1.2-83.4-0.7-85.8c0.8-3.6,2.5-6.3,5.9-9.2c5.1-4.4,4.7-3.7,4.9-12.2l0.2-7.4l-5.7,0.2c-6.8,0.3-9.1-0.1-9.1-1.7
		c0-0.6,0.2-1,0.4-1c1.4,0,8.5-4,10.3-5.7c1.9-1.9,2-2.1,1.9-3.8l-0.1-1.8l-6.4-0.2c-3.6-0.1-6.6-0.3-6.7-0.5
		c-0.1-0.1-0.2-0.7,0-1.2c0.2-0.7,1.4-1.6,3.6-2.9c3.3-1.9,5.6-3.7,5.6-4.4c0-0.6-3.3-1.3-5.6-1.3s-3.4-0.6-2.9-1.8
		c0.2-0.5,2-1.4,6.3-3c5.6-2,7.2-2.9,7.2-4c0-0.8-1.3-1.2-4.9-1.5c-1.9-0.1-3.9-0.3-4.4-0.5c-1.3-0.3-1.2-1.6,0.4-2.9
		c3.1-2.5,6.6-6.5,7.8-8.8c0.7-1.3,1.6-3.9,2-5.7c0.4-1.8,1-4,1.3-4.9l0.6-1.6l0.7,1c0.4,0.6,0.9,2.2,1.3,3.7
		c0.7,3.1,2.1,5.9,3.9,7.6c0.6,0.7,3.3,2.6,5.8,4.3c3.8,2.5,4.6,3.3,4.7,4.2c0.1,1.4,0.2,1.4-7.7,2c-3.3,0.3-6.1,0.6-6.3,0.8
		c-0.4,0.4,1.1,1.6,4.2,3.1c3.8,1.8,7,3.9,7.4,4.7c0.3,0.6,0.3,1-0.2,1.4c-0.5,0.6-1.6,0.7-5.9,0.7c-4.4,0-5.3,0.1-5.3,0.6
		c0,0.6,1.2,1,5.5,1.8c3.9,0.8,8.4,2.8,8.8,4c0.8,2-0.9,2.7-13.2,5c-4,0.7-3.2,1.4,4.5,3.8c6.6,2,8.4,3,8.6,4.3
		c0.3,1.9-1.2,2.7-10.1,5.1l-3.5,0.9l-0.1,4.9c-0.1,4.2,0,5,0.5,5.2c1,0.3,1.5,0,10.2-6.5c8.9-6.7,18.3-13.2,21.5-14.8
		c1.7-0.9,2.8-1.1,5.1-1.1c3.4,0,3.9,0.3,5.9,4l1.4,2.5l0.2-10.4c0.2-9.4,0.3-10.7,1.1-13.1c0.5-1.5,1.2-3.9,1.6-5.5
		c0.4-1.7,1-3.3,1.5-3.8c1-1.1,0.6-1.2-1.2-0.1c-4.4,2.6-12.8,5-17.3,4.8l-2.6-0.1l3-1.8c4-2.4,7.6-5.8,8.9-8.3
		c1.7-3.3,2.6-8.4,2.9-15.7c0.2-7.5,0.1-8.1-2.7-9.4c-1.4-0.8-34.5-11.9-44.6-15c-3.6-1.2-5.3-1.5-7.8-1.5c-3.8,0-4.4,0.5-8,5.4
		c-2,2.7-2.5,3.2-3.4,3.1c-0.9-0.1-1.1-0.4-1.2-1.7c-0.2-3.5,3.5-12.4,7.4-17.6c2.6-3.4,10.8-12,15.4-16
		c6.7-5.8,17.5-12.3,21.7-12.8c6.4-0.9,6-1,27.3,6.1c21,7,22.4,7.4,24.9,5.8c0.7-0.5,1.9-1.9,2.7-3.4c1.2-2,1.7-2.6,2.5-2.7
		c1.8-0.2,2.4,1.1,2.4,5.5v3.8l-2.5,4.9c-1.4,2.6-2.9,6-3.4,7.4l-0.9,2.6l-0.1,151.3c-0.1,150.1-0.1,151.3,0.7,157.8
		c1.6,12.9,5.5,29.3,9.2,39.3c2.5,6.6,4.2,9.9,6.8,12.9c1.4,1.5,2.8,3.4,2.9,3.8C502.5,712.7,501.7,717.6,498.1,728.5z M542.3,727
		c-1.7,0.9-5.3,1.6-6.6,1.2c-2.1-0.6-8.6-7.6-16.9-18.2c-8.2-10.5-10.2-14.8-15.7-33.1c-2.3-7.6-4.3-14.9-4.4-16.1
		c-0.3-3,0.5-4.6,6-11.9c2.2-3,4.8-6.8,5.6-8.4l1.5-2.9l0.3-11.4c0.5-14,0.2-93.3-0.2-94.6c-0.5-1.3-1-1.1-1.2,0.4
		c-0.3,2-1,20.7-1.9,56.5c-0.9,40.2-1.2,47.2-1.6,46.2c-0.3-0.9-0.4-1.4-2.3-25.1l-1.4-18.2l-0.4-80.1c-0.3-44.1-0.5-113-0.7-153.2
		l-0.3-71.9c0-0.6,0.5-1.3,1.1-1.5c0.5-0.2,1.1-0.5,1.2-0.7c0.2-0.1,0.9-0.3,1.8-0.3c1.3,0,1.7,0.2,2.1,1.1c0.2,0.6,0.7,4.4,0.9,8.6
		c0.3,4.1,0.6,7.9,0.7,8.3c0.6,1.8,1-0.4,1.4-7.5c0.5-7.7,1.2-11.7,2.3-13.4c1.4-2.2,2.2-0.7,3.1,5.1c0.5,3.5,0.5,3.5,0.8,1.7
		c0.1-1,0.3-4,0.3-6.6c0-2.6,0.2-5.3,0.4-5.9c0.3-1,0.6-1.1,1.9-0.9c0.9,0.2,1.6,0.5,1.8,0.7c0.2,0.3,0.4,6.1,0.6,13
		c0.3,13,0.7,16.8,1.8,19.3l0.6,1.5l0.3-1.1c0.3-0.7,0.5-6,0.7-11.9c0.3-13.5,0.4-13.8,2.2-14.7c1.9-0.9,15.5-1.8,22.5-1.4
		c16.3,0.9,24.2,1.1,26.4,0.9c2.5-0.3,2.5-0.3,3.9,1.2c0.8,0.8,2.2,3.2,3.2,5.2c6.1,12.9,11.3,21.8,15.1,25.9c1,1,1.6,1.9,1.5,2.1
		c-0.1,0.1-1.5-0.5-3-1.4c-3.7-2.2-6.6-3.6-9.4-4.7c-3-1.1-6-1.1-17.9-0.2c-12.7,1-23.3,1-27.1-0.1c-3.6-1-4.3-1-5.8-0.2l-1.1,0.6
		l-0.2,53.1c-0.2,29.2-0.2,55.9,0,59.5l0.3,6.4l8-11.1c4.4-6.2,8.7-12,9.6-13c1.5-1.7,3.6-2.9,4.8-2.9c0.3,0,2.1,1.2,3.9,2.7
		c1.9,1.5,3.7,2.7,4,2.7c0.5,0,0.6-0.7,0.5-5l-0.1-5l-3.5-0.9c-9.2-2.5-10.6-3.2-10.1-5.2c0.3-1.4,1.8-2.1,8.6-4.2
		c7.5-2.4,8.7-3.5,4-4c-4.4-0.6-11.8-2.4-12.5-3.1c-0.5-0.6-0.6-1-0.3-1.8c0.5-1.3,4.9-3.3,9-4c3.8-0.7,5.3-1.2,5.3-1.9
		c0-0.5-1-0.6-5.3-0.6c-4.2,0-5.4-0.2-5.9-0.7c-0.4-0.5-0.5-0.8-0.2-1.4c0.4-0.8,3.7-2.9,7.4-4.7c3.1-1.5,4.6-2.7,4.2-3.1
		c-0.2-0.2-3-0.6-6.3-0.8c-7.9-0.7-7.9-0.7-7.7-2c0.1-0.9,0.9-1.6,4.6-4.1c2.4-1.6,5.1-3.6,5.8-4.3c1.9-1.8,3.3-4.5,4-7.6
		c0.4-1.5,1-3.1,1.3-3.7l0.7-1l0.6,1.6c0.3,0.9,0.9,3.1,1.3,4.9c0.4,1.8,1.2,4.3,1.9,5.5c1.4,2.8,4.7,6.6,7,8.2
		c1.6,1.1,2.6,2.9,2,3.5c-0.1,0.1-2.2,0.5-4.6,0.7c-4.5,0.5-5.4,0.7-5.4,1.6c0,1,1.6,1.9,7.4,4.1c4.4,1.7,6,2.4,6.2,3.1
		c0.4,1.2-0.7,1.7-3.4,1.7c-2.3,0-5.3,0.8-5.3,1.3c0,0.7,2.3,2.5,5.6,4.4c2.3,1.3,3.4,2.2,3.6,2.9c0.2,0.5,0.2,1,0,1.2
		s-3.2,0.4-6.7,0.5l-6.4,0.2l-0.1,1.8c-0.1,1.7,0,1.9,1.9,3.8c1.8,1.7,9,5.7,10.3,5.7c0.2,0,0.4,0.4,0.4,1c0,1.5-2.4,2-9.1,1.6
		l-5.6-0.2v6.7c0,3.7,0.1,7.1,0.3,7.7c0.2,1,16.8,15.7,20.6,18.3c2.9,2,6.5,1.6,14.1-1.5l2.1-0.9l-0.6,1.1c-1.7,3.4-8.5,14.8-13,22
		l-5.2,8.2l2.4,0.1c2.2,0.1,2.5,0.2,2.7,1c0.1,0.5,0.4,23.4,0.6,50.9c0.2,27.4,0.5,50.1,0.6,50.3c0.2,0.1,0.5,20.2,0.7,44.6
		c0.4,39.4,0.6,45.1,1.3,51.4c0.9,8.4,1,9.9,0.2,10.2c-1.8,0.7-3.7-2.6-6.4-10.9l-1.9-5.9l0.2,6.5c0.1,3.6,0.4,9.1,0.6,12.3
		c0.4,6.9,0.6,6.4-4.6,12.2C577.7,690.6,543.6,726.3,542.3,727z M641,727.6c-12.7,14.3-16.3,18-17,18c-0.8,0-1.3-1-2-4.7
		c-1.4-6.6-4.7-11.6-9.9-14.9c-5.4-3.4-11.1-4.8-17-4.1c-4.7,0.6-7.2,1.4-12.5,4.2c-2.6,1.3-4.7,2.4-4.9,2.4c-0.5,0,1.8-2.2,4.8-4.6
		c3.6-2.8,8.3-5.2,12.7-6.4l3.1-0.8l-2.8,0.2c-5.6,0.5-10.3,2.6-15.9,7.1c-4.1,3.3-8.9,8.6-14.8,16.3c-4.2,5.5-5.2,6.5-5.2,5.4
		c0-0.8,3.7-7.4,6.4-11.2c7-10.1,20.7-25.4,28.9-32.3c8-6.7,13.5-9.6,21.2-11.4c4.9-1.2,11.4-0.3,15.9,2c3.4,1.7,7.9,7.2,10.1,12
		c0.5,1.2,1.1,2.4,1.2,2.5s2.3-2,5-4.7c4-3.9,5.1-4.8,5.6-4.5c0.5,0.4,3.9,9.3,3.8,10.2C657.7,708.8,653.6,713.6,641,727.6z
		 M758.9,443c2.3,1.3,6,3.5,8.3,4.9c2.2,1.5,6.7,4.2,9.8,6.1c3.1,1.9,5.7,3.7,5.7,3.9s-1.4,1-3.1,1.7s-4.2,1.9-5.5,2.7
		c-2.9,1.7-8.5,7.2-10.2,10.1l-1.2,2l-0.2,48.7l-0.2,48.7l-2,0.1l-2,0.2l2.2,0.9l2.1,1v43.1c0,23.7,0.2,51.7,0.4,62.3
		c0.3,21,0.4,21.5,2.8,24.8c0.9,1.1,1.3,2.1,1.3,3.1c0,1.6-1.9,6-3.5,8.1c-0.6,0.7-1,1.3-0.8,1.3s2.1-2.5,4.3-5.4
		c4.7-6.2,8.5-10.5,9.3-10.5c0.7,0,1.8,3.7,1.8,5.9c0,1.6-1,3.8-3.1,7c-1.5,2.2,0.1,0.6,2.9-2.9c1.5-1.9,2.8-3.4,2.9-3.3
		c0.5,0.6-1.5,4.6-3.5,7.1c-3,3.8-21,24.2-21.4,24.2c-0.5,0.1-3-4.2-4.4-7.4c-0.8-1.7-1.5-3.1-1.6-3c-0.1,0.1,0.2,2.4,0.7,5.2
		c1,5.6,1,10.3,0,10.3c-1.1,0-11.5-13.9-13.8-18.4c-1.3-2.5-2.8-9.3-3.4-15.3c-0.6-5.5-0.3-140.2,0.4-173.2
		c0.4-20.7,0.5-21.4,3.2-30.6c1-3.1,1.6-5.8,1.4-6c-0.2-0.1-1.5-0.3-2.8-0.4l-2.5-0.1l-0.3-3.1c-0.2-1.7-0.2-22.1-0.1-45.2l0.2-42.1
		l1.7-7.8c1.9-9,3.8-15.3,5.8-18.8c0.8-1.4,3-4.7,4.9-7.4c2.4-3.5,3.3-5.1,3.1-5.5c-0.9-1.5-27-30-28.3-30.8
		c-0.7-0.5-1.8,0.6-9.9,9.5l-3.6,3.9V380c0,30.9,0.3,27.8-3.3,29.8l-1.8,1.1h2.6h2.5v103.8c0,101,0,103.7-0.8,112.1
		c-0.5,4.7-1.1,9.3-1.3,10.2c-0.3,0.8-0.6,3.1-0.8,5.1c-0.6,6-1.3,11.2-1.7,12.1c-0.6,1.2-9.5,11.3-10.7,12
		c-1.6,0.9-2.2,0.2-2.5-3.6c-0.2-3.1-2-13-2.4-13.4c0,0-0.2,5.1-0.4,11.4l-0.3,11.5l-2.8,3.1c-1.5,1.7-3.3,3.4-3.9,3.7
		c-2.1,1.1-2.1,0.8-2.4-18.5c-0.1-9.7-0.4-81.2-0.5-158.8l-0.3-141.1l-2.1-3.6c-1.2-2-4.2-6.8-6.8-10.6l-4.7-7.1l-6.2,6.7l-6.2,6.7
		l-0.2,82l-0.2,82l-1.8,1.1l-1.8,1.1l2,0.3l2,0.2l-0.1,11.2c-0.4,33.4-1.4,75.3-2,75.9c-0.2,0.1-0.3,0.1-0.4,0s-0.4-5-0.6-10.8
		c-0.5-11.7-1.9-31.6-2.5-35.8c-0.3-1.7-0.3,12.5-0.2,38.7l0.2,41.4l-1,2c-0.5,1-1.3,2.3-1.6,2.7c-0.6,0.8-0.6,0.7-1.3-0.6
		c-0.4-0.8-1.2-2-1.9-2.7c-1.6-1.9-2.2-4.2-1.6-7c0.2-1.3,0.4-2.8,0.4-3.5c0-1.3,0-1.3-0.6-0.4c-0.3,0.4-1.1,2.2-1.8,4l-1.3,3.2
		l0.4,5.9c0.6,8.1,1.3,11,3.3,14.6c0.9,1.6,1.6,3.1,1.5,3.2c-0.5,0.6-3.9-4.4-6.6-9.7c-1.7-3.3-3.1-6.1-3.1-6.3c0-0.1,0.4,0.2,1,0.7
		c0.8,0.8,0.3-0.3-1.7-4.3c-1.5-2.9-3-5.3-3.3-5.4c-0.7-0.2-0.8-0.7-0.2-1.1c0.8-0.5,0.3-2.2-2.2-7.2l-2.6-5.2l-0.2-75.5
		c-0.3-74.1-0.3-75.5-1.1-76.8c-0.8-1.3-2.3-2.2-3.7-2.2c-1.7,0-0.5-1.4,3.9-4.6c2.5-1.7,4.5-3.3,4.6-3.5c0-0.2-0.4-0.5-1.1-0.8
		c-2.7-0.9-2.5,2.9-2.8-54.5l-0.2-52.1l-1-1.7c-1.6-2.8-5.8-6.5-9.6-8.3c-2.7-1.3-4-1.7-6.5-1.9l-3.1-0.3l-1.1,2.4
		c-0.6,1.3-1.2,3-1.4,3.8l-0.3,1.4L596,347c-0.3-0.7-0.6-2.3-0.6-3.7c0-3,0.3-3.4,7.4-11.2c2.7-3,7.5-8.3,10.5-11.7
		c6-6.8,6.7-7.5,8.4-7.5c2.4,0,20.4,10.4,23.8,13.7c2.3,2.3,4.3,5.8,4.3,7.6c0,0.6,0.1,1.1,0.2,1.1c0.2,0,1.4-1.2,2.8-2.7
		s7.6-8.2,13.7-14.9c8.7-9.6,11.3-12.2,12.1-12.2c1.3,0,2.4,1.4,10.3,12.8c13.4,19.4,15,21.5,15.4,21.3c0.7-0.3,3.8-3.8,14.8-16.5
		c12.4-14.4,14.9-17.2,15.7-17.2c0.3,0,6.7,6.2,14.1,13.7c12.1,12.2,13.7,13.7,15.5,14.3c3.5,1.2,4.3,1,7.8-1.9
		c7.7-6.3,8.3-6.7,9.4-5.6c0.2,0.2,1.1,2.5,2,5l1.6,4.6l-5.4,5.8c-11.9,12.8-14.8,18.3-17.3,32.5c-0.4,2-0.6,12.2-0.8,34.2
		c-0.2,17.2-0.4,31.5-0.6,31.7c-0.2,0.2-1.9,0.5-3.1,0.4l-3.3,0.2L758.9,443z M821.9,508.8c-0.6,0-3.4-1-6.3-2.2l-5.3-2.1l-2.7-4.3
		c-1.4-2.4-3.6-5.9-4.8-7.9s-2.3-3.5-2.4-3.4c-0.1,0,0.2,1.8,0.7,3.8c1,4.2,1.1,6.7,0.4,6.5c-0.2-0.1-1.2-1.2-2-2.4
		c-1.2-1.8-2.1-4.2-4.2-11.2c-1.5-4.9-2.7-9.2-2.6-9.5c0.1-0.4,0.6-0.2,2.1,0.7l2,1.3l-2.5-2.8c-3.6-4.1-4.7-5.5-4.7-5.9
		c0-2.6,16.8,7.1,23.5,13.6c4.6,4.5,3.9,4.6-2.8,0.6c-4.9-3-6.7-4-6.7-3.8c0,0.1,3,2.4,6.7,5.1c4.8,3.5,6.9,5.4,7.6,6.5
		c0.9,1.5,4.2,12.5,4.7,15.8C822.8,508.7,822.8,508.8,821.9,508.8z M837.6,499.7c-1.8,5.4-3.7,9.5-4.4,9.7c-0.6,0.2-2.3-2.2-6.3-8.9
		c-4.1-6.8-3.7-7.4,1.8-2.4l2.4,2.2l-1-1.8c-0.5-1-2.5-3.4-4.5-5.3c-2-2-3.6-3.9-3.6-4.3c0-0.9,0.9-2.8,2.9-5.7
		c0.9-1.2,1.4-2.3,1.3-2.3c-0.1,0-1.1,0.8-2.2,1.8c-2.3,2.1-3,2.3-2.6,0.7c0.3-1.1,4.1-10.5,6.2-15.1l1.1-2.6l1.4,1.8
		c0.8,1,1.5,1.8,1.6,1.7c0.1-0.1-0.1-1.3-0.4-2.6c-1.1-4.2-1.2-7.9-0.4-11.3c0.4-1.7,0.8-3.1,1-3.1c0.7,0,9.3,31.7,8.9,32.8
		c-0.2,0.5-0.9-0.6-3.4-5.2c-0.8-1.5-1.6-2.6-1.7-2.4c-0.1,0.3,0.8,2.7,1.8,5.6c1.7,4.5,1.9,5.4,1.9,8.3
		C839.4,494.1,839.1,495.4,837.6,499.7z M871,472.8c-1,1.2-2.5,2.9-3.3,3.8l-1.6,1.8l2-1.1c1.1-0.6,2-1.1,2.1-1
		c0.1,0.1-1.1,4.3-2.6,9.5c-2.2,7.6-3,9.7-4.3,11.6c-0.9,1.3-1.9,2.4-2.1,2.5c-0.9,0.2-0.7-2.5,0.4-7c0.6-2.7,0.7-3.9,0.4-3.5
		c-0.3,0.3-2.5,3.9-5,7.9c-5,8.3-4.3,7.7-12.1,10.7c-2.4,1-4.6,1.6-4.8,1.4c-0.7-0.6,3.2-14.6,4.7-17.3c0.6-1.1,2.8-3,7.5-6.5
		c3.7-2.7,6.7-5,6.7-5.1c0-0.2-2.1,1-6.4,3.6c-3.7,2.2-5.9,3.3-6.2,3c-0.5-0.5,5-5.3,9.9-8.9c5.3-3.9,9.1-6.2,12.3-7.5
		c2.6-1,4.2-1.2,4.2-0.5C872.8,470.5,872,471.7,871,472.8z"/>
	<path class="st0" d="M628.8,696.6c-1.1-0.6-2.9-1.1-4-1.3l-2-0.2l3.1,1.6c3.1,1.5,4.2,2.7,8.6,9.4c1.4,2.2,1.5,1.7,0.2-1.8
		C633.4,700.7,631.2,697.9,628.8,696.6z"/>
	<path class="st0" d="M523.9,700.1c-2.4-4-6.4-11.3-9-16.4c-4.8-9.2-5.4-9.8-3-2.7c1.9,5.5,4.2,11.2,6,14.1
		c6.9,11.7,11.2,18.1,13.5,20.2c0.9,0.8,0.9,0.8,0.5-0.2C531.1,712.8,527.9,706.9,523.9,700.1z"/>
	<path class="st0" d="M586.9,430.6c-0.6-0.7-3-2.7-5.1-4.5c-2.1-1.8-5.8-5-8.2-7.2c-2.4-2.1-5.7-5.1-7.4-6.6
		c-3.1-2.7-5.3-4.1-5.3-3.4c0,0.6,3.5,5.1,6,7.4c5.9,5.7,12.6,10.8,19.2,14.5l2,1.1L586.9,430.6z"/>
	<path class="st0" d="M554.4,445.4c-10-8.7-10.5-9-12.1-9c-2.8,0.1-3.4,0.3-4.9,2.1l-1.5,1.7l0.2,28.8c0.2,15.9,0.5,42.7,0.7,59.7
		c0.2,16.9,0.5,47.8,0.6,68.5l0.2,37.6l-1.3,6c-1.6,8-1.6,11.4,0,16.4c1.8,5.2,5.2,12.1,8.7,17.3c4.7,7,14.6,16.3,18.6,17.5
		c1.3,0.4,3.3-1.9,4.5-5c3.2-8.7,3.2-18.1,0-27.3l-1.2-3.3l-0.3-48.4c-0.1-26.6-0.3-67.1-0.3-89.9v-41.5l1.1-2.3
		c0.7-1.6,1.8-3,3.4-4.3c2.7-2.3,3.8-4.7,3.3-6.3C573.6,462.4,567.5,456.7,554.4,445.4z"/>
	<path class="st0" d="M576.6,283.6c0.4-0.3-37.8-0.2-39.5,0.2c-1.6,0.3-1.5,0.3,0.2,0.7C540.8,285.1,575.9,284.3,576.6,283.6z"/>
</g>
</svg>
