<?xml version="1.0" encoding="utf-8"?>
<!-- Generator: Adobe Illustrator 24.1.2, SVG Export Plug-In . SVG Version: 6.00 Build 0)  -->
<svg version="1.1" id="Слой_1" xmlns="http://www.w3.org/2000/svg" xmlns:xlink="http://www.w3.org/1999/xlink" x="0px" y="0px"
	 viewBox="0 0 1024 1024" style="enable-background:new 0 0 1024 1024;" xml:space="preserve">
<style type="text/css">
	.st0{fill:#32AD78;}
</style>
<g>
	<path class="st0" d="M591.9,671.2c-0.2-3.3-0.5-8.9-0.6-12.6L591,652l1.9,6c2.8,8.5,4.7,11.8,6.5,11.1c0.8-0.3,0.7-1.8-0.2-10.4
		c-0.7-6.4-0.9-12.3-1.3-52.5c-0.2-24.9-0.5-45.4-0.7-45.5c-0.1-0.2-0.4-23.4-0.6-51.4c-0.2-28.1-0.5-51.5-0.6-52
		c-0.2-0.8-0.5-0.9-2.8-1l-2.5-0.1l5.3-8.4c4.6-7.4,11.5-19,13.3-22.5l0.6-1.1l-2.1,0.9c-7.8,3.2-11.4,3.6-14.4,1.5
		c-3.9-2.7-20.8-17.7-21-18.7c-0.2-0.6-0.3-4.1-0.3-7.9v-6.8l5.7,0.2c6.8,0.4,9.3-0.1,9.3-1.6c0-0.6-0.2-1-0.4-1
		c-1.3,0-8.7-4.1-10.5-5.8c-1.9-1.9-2-2.1-1.9-3.9l0.1-1.8l6.5-0.2c3.6-0.1,6.6-0.3,6.8-0.5c0.2-0.2,0.2-0.7,0-1.2
		c-0.2-0.7-1.3-1.6-3.7-3c-3.4-1.9-5.7-3.8-5.7-4.5c0-0.5,3.1-1.3,5.4-1.3c2.8,0,3.9-0.5,3.5-1.7c-0.2-0.7-1.8-1.4-6.3-3.2
		c-5.9-2.2-7.6-3.2-7.6-4.2c0-0.9,0.9-1.1,5.5-1.6c2.5-0.2,4.6-0.6,4.7-0.7c0.6-0.6-0.4-2.5-2-3.6c-2.3-1.6-5.7-5.5-7.1-8.4
		c-0.7-1.2-1.5-3.8-1.9-5.6c-0.4-1.8-1-4.1-1.3-5l-0.6-1.6l-0.7,1c-0.3,0.6-0.9,2.2-1.3,3.8c-0.7,3.2-2.1,5.9-4.1,7.8
		c-0.7,0.7-3.5,2.8-5.9,4.4c-3.8,2.6-4.6,3.3-4.7,4.2c-0.2,1.3-0.2,1.3,7.9,2c3.4,0.2,6.2,0.6,6.4,0.8c0.4,0.4-1.1,1.6-4.3,3.2
		c-3.8,1.8-7.1,4-7.6,4.8c-0.3,0.6-0.2,0.9,0.2,1.4c0.5,0.5,1.7,0.7,6,0.7c4.4,0,5.4,0.1,5.4,0.6c0,0.7-1.5,1.2-5.4,1.9
		c-4.2,0.7-8.7,2.8-9.2,4.1c-0.3,0.8-0.2,1.2,0.3,1.8c0.7,0.7,8.3,2.6,12.8,3.2c4.8,0.5,3.6,1.6-4.1,4.1c-6.9,2.1-8.5,2.9-8.8,4.3
		c-0.5,2,0.9,2.8,10.3,5.3l3.6,0.9l0.1,5.1c0.1,4.4,0,5.1-0.5,5.1c-0.3,0-2.1-1.2-4.1-2.8c-1.8-1.5-3.7-2.8-4-2.8
		c-1.2,0-3.4,1.2-4.9,3c-0.9,1-5.3,6.9-9.8,13.3l-8.2,11.3l-0.3-6.5c-0.2-3.7-0.2-30.9,0-60.7l0.2-54.2l1.1-0.6
		c1.5-0.8,2.2-0.8,5.9,0.2c3.9,1.1,14.7,1.1,27.7,0.1c12.1-0.9,15.2-0.9,18.3,0.2c2.9,1.1,5.8,2.6,9.6,4.8c1.5,0.9,3,1.5,3.1,1.4
		c0.1-0.2-0.5-1.1-1.5-2.1c-3.9-4.2-9.2-13.3-15.4-26.4c-1-2-2.5-4.5-3.3-5.3c-1.4-1.5-1.4-1.5-4-1.2c-2.2,0.2-10.3,0-27-0.9
		c-7.1-0.4-21,0.5-23,1.4c-1.8,0.9-1.9,1.2-2.2,15c-0.2,6-0.4,11.4-0.7,12.1l-0.3,1.1l-0.6-1.5c-1.1-2.6-1.5-6.4-1.8-19.7
		c-0.2-7-0.4-13-0.6-13.3c-0.2-0.2-0.9-0.5-1.8-0.7c-1.3-0.2-1.6-0.1-1.9,0.9c-0.2,0.6-0.4,3.4-0.4,6c0,2.7-0.2,5.7-0.3,6.7
		c-0.3,1.8-0.3,1.8-0.8-1.7c-0.9-5.9-1.7-7.5-3.2-5.2c-1.1,1.7-1.8,5.8-2.3,13.7c-0.4,7.2-0.8,9.5-1.4,7.7c-0.1-0.4-0.4-4.3-0.7-8.5
		c-0.2-4.3-0.7-8.2-0.9-8.8c-0.4-0.9-0.8-1.1-2.1-1.1c-0.9,0-1.6,0.2-1.8,0.3c-0.1,0.2-0.7,0.5-1.2,0.7c-0.6,0.2-1.1,0.9-1.1,1.5
		l0.3,73.4c0.2,41,0.4,111.4,0.7,156.4l0.4,81.8l1.4,18.6c1.9,24.2,2,24.7,2.3,25.6c0.4,1,0.7-6.1,1.6-47.2
		c0.9-36.5,1.6-55.6,1.9-57.7c0.2-1.5,0.7-1.7,1.2-0.4c0.4,1.3,0.7,82.3,0.2,96.6l-0.3,11.6l-1.5,3c-0.8,1.6-3.5,5.5-5.7,8.6
		c-5.6,7.5-6.4,9.1-6.1,12.1c0.1,1.2,2.1,8.7,4.5,16.4c5.6,18.7,7.7,23.1,16,33.8c8.5,10.8,15.1,18,17.3,18.6c1.3,0.4,5-0.3,6.7-1.2
		c1.3-0.7,36.1-37.2,45.2-47.4C592.5,677.7,592.3,678.2,591.9,671.2z M536.6,278.5c1.7-0.4,40.7-0.5,40.3-0.2
		c-0.7,0.7-36.5,1.5-40.1,0.9C535.1,278.8,535,278.8,536.6,278.5z M530.8,719c-2.3-2.1-6.7-8.7-13.8-20.6c-1.8-3-4.2-8.8-6.1-14.4
		c-2.5-7.2-1.8-6.6,3.1,2.8c2.7,5.2,6.7,12.7,9.2,16.7c4.1,6.9,7.4,13,8.2,15.3C531.7,719.9,531.7,719.9,530.8,719z M571,468.6
		c-1.6,1.3-2.8,2.8-3.5,4.4l-1.1,2.3v42.4c0,23.3,0.2,64.6,0.3,91.8l0.3,49.4l1.2,3.4c3.3,9.4,3.3,19,0,27.9
		c-1.2,3.2-3.3,5.5-4.6,5.1c-4.1-1.2-14.2-10.7-19-17.9c-3.6-5.3-7-12.4-8.9-17.7c-1.6-5.1-1.6-8.6,0-16.7l1.3-6.1l-0.2-38.4
		c-0.1-21.1-0.4-52.7-0.6-69.9c-0.2-17.4-0.5-44.7-0.7-60.9l-0.2-29.4l1.5-1.7c1.5-1.8,2.1-2,5-2.1c1.6,0,2.1,0.3,12.4,9.2
		c13.4,11.5,19.6,17.4,20.1,18.7C574.9,463.8,573.8,466.3,571,468.6z M567,413.8c-2.6-2.3-6.1-6.9-6.1-7.6c0-0.7,2.2,0.7,5.4,3.5
		c1.7,1.5,5.1,4.6,7.6,6.7c2.5,2.2,6.2,5.5,8.4,7.4c2.1,1.8,4.6,3.9,5.2,4.6l1.2,1.3l-2-1.1C579.9,424.8,573.1,419.6,567,413.8z"/>
	<path class="st0" d="M407.7,281.7c6-4.6,10.8-8.3,10.7-8.3c-0.2,0-3.3,0.9-6.8,2.1c-14.2,4.6-14.6,4.6-77.6,4.4
		c-51.6-0.2-51.8-0.2-57.5-2.3c-1.3-0.5-3.7-1.7-5.1-2.8l-2.8-1.8l-1.8,2.7c-2.7,3.7-6.4,6.9-14.5,12.9
		c-7.8,5.5-23.3,18.1-27.7,22.4c-3.6,3.5-6.6,7.4-8.1,10.5c-1,2.1-1.1,2.8-1.1,6.9s0.1,4.8,1.1,6.7c2.3,4.5,6.5,7.8,11.7,9.4
		c7.4,2.2,17.4-0.5,23.2-6.3c4.1-4.1,5.7-8.6,4.8-13.3l-0.3-1.6l-0.6,2c-0.8,2.7-4.1,5.9-7.9,7.8c-2.6,1.2-3.3,1.4-6.9,1.5
		c-9.8,0.4-14.7-2.8-14.7-9.5c0-6.6,5.4-12.3,14.4-14.7c3.2-0.9,3.9-0.9,45.5-1.1c30.9-0.2,43-0.4,44.6-0.7c2.3-0.5,5.6-2,7.8-3.6
		l1.2-0.9l-0.7,1c-0.4,0.6-1.1,1.6-1.5,2.2c-0.8,1.2-0.8,2.2-0.8,78.9c0,82.8,0.3,107.4,1.4,112.3c0.9,4.1,0.8,16.9-0.2,35.7
		c-0.8,14-0.9,21-1.1,87.2c-0.2,64.6-0.2,72.1-0.8,73c-0.4,0.6-1.5,2-2.7,3.4c-2.5,2.9-3,3.8-3,5.5c0,1.6,0.9,2.6,4.1,4.3
		c1.2,0.6,4.3,2.9,6.8,4.9c5.5,4.4,5.9,4.7,6.9,4.1c1.8-0.9,2.7-2.5,3.3-5.9c0.4-1.8,0.9-3.5,1.2-3.7c0.2-0.1,1.4,0.3,2.7,0.9
		c2,1,2.3,1.1,4.3,0.6c2.8-0.7,3.5-1.8,6.2-9.8l2.2-6.2v-40c0-33.4-0.1-41.7-0.7-49.4c-0.4-5.4-0.9-19.2-1.1-32.6
		c-0.2-12.8-0.7-30.7-0.9-39.8c-0.8-24-0.7-27.3,0.7-33.6c1.1-5,1.1-5.8,1.4-21c0.2-8.7,0.4-41.4,0.4-72.8
		c0.1-31.3,0.2-66.2,0.4-77.4l0.2-20.3l2.8,3.7c1.5,2,3.8,4.8,5,6.1l2.2,2.6l1.1-3.4c1.6-4.5,4.3-9.8,6.9-13.5
		C390.3,295.5,395.8,290.6,407.7,281.7z M260.4,302.2c-6.1,0-6.6-0.1-3.6-0.3c6.2-0.4,9.6-0.4,10.2,0
		C267.4,302.1,265.2,302.2,260.4,302.2z M337.5,706.2c-0.3,0.3-4.1-2.3-4.1-3c0-0.9,0.6-1.2,0.7-0.4c0.1,0.4,0.9,1.3,1.8,1.9
		C336.9,705.5,337.6,706.1,337.5,706.2z M343.4,532.3c-0.6,18.4-1.1,28-1.8,31.4c-0.6,2.9-0.6,2.8-0.4-4.2c0.5-21.3,1-32.1,1.6-36.4
		c0.4-2.6,0.8-4.6,0.9-4.6C343.8,518.7,343.7,524.9,343.4,532.3z M363.7,680.3c-0.6,5.1-0.9,0.6-1.2-19c-0.1-10.9-0.4-21.1-0.5-22.8
		c-0.1-2-0.1-2.8,0.2-2.2c0.2,0.4,0.6,3.1,0.8,6C363.6,649.3,364.1,677,363.7,680.3z M362,474.7c0.2-0.6,0.3-15.3,0.4-32.9
		c0-24.4,0.2-31.7,0.5-31.1c0.2,0.3,0.6,2.1,0.7,4.1c0.2,1.8,0.2,15.1,0.1,29.3c-0.2,25.5-0.4,30.2-1.7,31.3
		C361.8,475.6,361.8,475.3,362,474.7z M365.3,285.4c-9.1,0.5-61.9,0.1-62.5-0.5c-0.5-0.5,47.9-0.6,61.5-0.1l7.4,0.2L365.3,285.4z"/>
	<path class="st0" d="M765.3,438.2c0.2-0.2,0.4-14.8,0.6-32.4c0.2-22.5,0.4-32.9,0.8-34.9c2.6-14.5,5.5-20.1,17.7-33.2l5.5-5.9
		l-1.6-4.7c-0.9-2.6-1.8-4.9-2-5.1c-1.1-1.1-1.7-0.7-9.6,5.7c-3.6,3-4.4,3.2-8,1.9c-1.8-0.6-3.5-2.1-15.8-14.6
		c-7.6-7.7-14.1-14-14.4-14c-0.8,0-3.4,2.9-16,17.6c-11.2,13-14.4,16.5-15.1,16.8c-0.4,0.2-2-1.9-15.7-21.7
		c-8.1-11.6-9.2-13.1-10.5-13.1c-0.8,0-3.5,2.7-12.4,12.5c-6.2,6.8-12.6,13.7-14,15.2s-2.7,2.8-2.9,2.8c-0.1,0-0.2-0.5-0.2-1.1
		c0-1.8-2-5.4-4.4-7.8c-3.5-3.4-21.8-14-24.3-14c-1.7,0-2.5,0.7-8.6,7.7c-3.1,3.5-8,8.9-10.7,11.9c-7.2,8-7.6,8.4-7.6,11.4
		c0,1.4,0.3,3.1,0.6,3.8l0.5,1.2l0.3-1.4c0.2-0.8,0.8-2.6,1.4-3.9l1.1-2.5l3.2,0.3c2.6,0.2,3.9,0.6,6.6,1.9c3.9,1.8,8.2,5.6,9.8,8.5
		l1,1.7l0.2,53.2c0.3,58.6,0.1,54.7,2.9,55.6c0.7,0.3,1.1,0.6,1.1,0.8c-0.1,0.2-2.1,1.8-4.7,3.6c-4.5,3.3-5.7,4.7-4,4.7
		c1.4,0,3,0.9,3.8,2.2c0.8,1.3,0.8,2.8,1.1,78.4l0.2,77.1l2.7,5.3c2.6,5.1,3.1,6.8,2.2,7.4c-0.6,0.4-0.5,0.9,0.2,1.1
		c0.3,0.1,1.8,2.6,3.4,5.5c2,4.1,2.6,5.2,1.7,4.4c-0.6-0.5-1-0.8-1-0.7c0,0.2,1.4,3.1,3.2,6.4c2.8,5.4,6.2,10.5,6.7,9.9
		c0.1-0.1-0.6-1.6-1.5-3.3c-2-3.7-2.8-6.6-3.4-14.9l-0.4-6l1.3-3.3c0.7-1.8,1.5-3.7,1.8-4.1c0.6-0.9,0.6-0.9,0.6,0.4
		c0,0.7-0.2,2.2-0.4,3.6c-0.6,2.9,0,5.2,1.6,7.1c0.7,0.7,1.5,1.9,1.9,2.8c0.7,1.3,0.7,1.4,1.3,0.6c0.3-0.4,1.1-1.7,1.6-2.8l1-2
		l-0.2-42.3c-0.1-26.7-0.1-41.2,0.2-39.5c0.6,4.3,2,24.6,2.6,36.5c0.2,5.9,0.5,10.9,0.6,11s0.2,0.1,0.4,0c0.6-0.6,1.6-43.4,2-77.5
		l0.1-11.4l-2-0.2l-2-0.3l1.8-1.1l1.8-1.1l0.2-83.7l0.2-83.7l6.3-6.8l6.3-6.8l4.8,7.2c2.7,3.9,5.7,8.8,6.9,10.8l2.1,3.7l0.3,144
		c0.1,79.2,0.4,152.2,0.5,162.1c0.3,19.7,0.3,20,2.5,18.9c0.6-0.3,2.5-2,4-3.8l2.9-3.2l0.3-11.7c0.2-6.4,0.4-11.6,0.4-11.6
		c0.4,0.4,2.2,10.5,2.5,13.7c0.3,3.9,0.9,4.6,2.6,3.7c1.2-0.7,10.3-11,10.9-12.3c0.4-0.9,1.1-6.2,1.7-12.4c0.2-2,0.5-4.4,0.8-5.2
		c0.2-0.9,0.8-5.6,1.3-10.4c0.8-8.6,0.8-11.3,0.8-114.4v-106h-2.6h-2.7l1.8-1.1c3.7-2,3.4,1.1,3.4-30.4v-28l3.7-4
		c8.3-9.1,9.4-10.2,10.1-9.7c1.3,0.8,28,29.9,28.9,31.4c0.2,0.4-0.7,2-3.2,5.6c-1.9,2.8-4.2,6.1-5,7.6c-2,3.6-4,10-5.9,19.2l-1.7,8
		l-0.2,43c-0.1,23.6-0.1,44.4,0.1,46.1l0.3,3.2l2.6,0.1c1.3,0.1,2.7,0.3,2.9,0.4c0.2,0.2-0.4,3-1.4,6.1c-2.8,9.4-2.9,10.1-3.3,31.2
		c-0.7,33.7-1,171.2-0.4,176.8c0.6,6.1,2.1,13.1,3.5,15.6c2.3,4.6,13,18.8,14.1,18.8c1,0,1-4.8,0-10.5c-0.5-2.9-0.8-5.2-0.7-5.3
		c0.1-0.1,0.8,1.3,1.6,3.1c1.4,3.3,4,7.7,4.5,7.6c0.4,0,18.8-20.8,21.8-24.7c2-2.6,4.1-6.6,3.6-7.2c-0.1-0.1-1.4,1.4-3,3.4
		c-2.9,3.6-4.5,5.2-3,3c2.1-3.3,3.2-5.5,3.2-7.1c0-2.2-1.1-6-1.8-6c-0.8,0-4.7,4.4-9.5,10.7c-2.2,3-4.2,5.5-4.4,5.5
		c-0.2,0,0.2-0.6,0.8-1.3c1.6-2.1,3.6-6.6,3.6-8.3c0-1-0.4-2-1.3-3.2c-2.5-3.4-2.6-3.9-2.9-25.3c-0.2-10.8-0.4-39.4-0.4-63.6v-44
		l-2.1-1l-2.2-0.9l2-0.2l2-0.1l0.2-49.7l0.2-49.7l1.2-2c1.7-3,7.5-8.6,10.4-10.3c1.3-0.8,3.9-2,5.6-2.8c1.7-0.7,3.2-1.5,3.2-1.7
		s-2.7-2-5.8-4s-7.8-4.7-10-6.2c-2.3-1.4-6.1-3.7-8.5-5l-4.3-2.2l3.4-0.2C763.4,438.7,765.1,438.4,765.3,438.2z M638.3,321
		c-0.5,0.5-14-5.8-14-6.6c0-0.6,0.4-0.4,5,1.5C633.6,317.7,638.7,320.6,638.3,321z M697.1,334.5c-4-3.8-13.3-17.3-13.2-19.1
		c0-0.4,0.7,0.4,6.6,8.6c2.9,3.9,5.9,8.3,6.8,9.8l1.6,2.7L697.1,334.5z M745.7,317.2c-3.9-5.3-3.1-5.3,2.3,0
		c3.9,3.7,14.1,16.1,13.5,16.3C760.1,334.1,752.3,326.1,745.7,317.2z"/>
	<path class="st0" d="M497,709.3c-2.7-3.1-4.4-6.4-6.9-13.2c-3.8-10.2-7.8-27-9.4-40.1c-0.8-6.6-0.8-7.9-0.7-161.1l0.1-154.5
		l0.9-2.7c0.5-1.4,2-4.9,3.5-7.6l2.6-5v-3.9c0-4.5-0.6-5.8-2.5-5.6c-0.8,0.1-1.3,0.7-2.6,2.8c-0.8,1.5-2,3-2.8,3.5
		c-2.6,1.6-4,1.2-25.4-5.9c-21.7-7.2-21.3-7.1-27.9-6.2c-4.3,0.5-15.3,7.1-22.2,13.1c-4.7,4.1-13.1,12.9-15.7,16.3
		c-4,5.3-7.8,14.4-7.6,18c0.1,1.3,0.3,1.6,1.2,1.7c0.9,0.1,1.4-0.4,3.5-3.2c3.7-5,4.3-5.5,8.2-5.5c2.6,0,4.3,0.3,8,1.5
		c10.3,3.2,44.1,14.5,45.5,15.3c2.9,1.3,3,1.9,2.8,9.6c-0.3,7.5-1.2,12.7-3,16c-1.3,2.6-5,6-9.1,8.5l-3.1,1.8l2.7,0.1
		c4.6,0.2,13.2-2.2,17.7-4.9c1.8-1.1,2.2-1,1.2,0.1c-0.5,0.5-1.1,2.1-1.5,3.9c-0.4,1.6-1.1,4.1-1.6,5.6c-0.8,2.5-0.9,3.8-1.1,13.4
		l-0.2,10.6l-1.4-2.6c-2-3.8-2.6-4.1-6-4.1c-2.3,0-3.5,0.2-5.2,1.1c-3.3,1.6-12.9,8.3-21.9,15.1c-8.9,6.6-9.4,6.9-10.4,6.6
		c-0.5-0.2-0.6-1-0.5-5.3l0.1-5l3.6-0.9c9.1-2.5,10.6-3.3,10.3-5.2c-0.2-1.3-2-2.3-8.8-4.4c-7.9-2.5-8.7-3.2-4.6-3.9
		c12.6-2.3,14.3-3.1,13.5-5.1c-0.4-1.2-5-3.3-9-4.1c-4.4-0.8-5.6-1.2-5.6-1.8c0-0.5,0.9-0.6,5.4-0.6c4.4,0,5.5-0.1,6-0.7
		c0.5-0.4,0.5-0.8,0.2-1.4c-0.4-0.8-3.7-3-7.6-4.8c-3.2-1.5-4.7-2.8-4.3-3.2c0.2-0.2,3.1-0.5,6.4-0.8c8.1-0.6,8-0.6,7.9-2
		c-0.1-0.9-0.9-1.7-4.8-4.3c-2.6-1.7-5.3-3.7-5.9-4.4c-1.8-1.7-3.3-4.6-4-7.8c-0.4-1.5-0.9-3.2-1.3-3.8l-0.7-1l-0.6,1.6
		c-0.3,0.9-0.9,3.2-1.3,5c-0.4,1.8-1.3,4.5-2,5.8c-1.2,2.3-4.8,6.4-8,9c-1.6,1.3-1.7,2.7-0.4,3c0.5,0.2,2.6,0.4,4.5,0.5
		c3.7,0.3,5,0.7,5,1.5c0,1.1-1.6,2-7.4,4.1c-4.4,1.6-6.2,2.6-6.4,3.1c-0.5,1.2,0.6,1.8,3,1.8c2.3,0,5.7,0.7,5.7,1.3
		c0,0.7-2.3,2.6-5.7,4.5c-2.2,1.3-3.5,2.2-3.7,3c-0.2,0.5-0.1,1.1,0,1.2c0.1,0.2,3.2,0.4,6.8,0.5l6.5,0.2l0.1,1.8
		c0.1,1.7,0,1.9-1.9,3.9c-1.8,1.7-9.1,5.8-10.5,5.8c-0.2,0-0.4,0.4-0.4,1c0,1.6,2.3,2,9.3,1.7l5.8-0.2l-0.2,7.6
		c-0.2,8.7,0.2,8-5,12.5c-3.5,3-5.2,5.7-6,9.4c-0.5,2.5-0.1,60.2,0.7,87.6c1,37.1,1,59.8-0.1,56.4c-0.2-0.7-0.5-9.2-0.7-19
		s-0.4-18-0.4-18.2c-0.3-1.5-0.9,3.8-1.2,10.8c-0.2,4.6-0.6,9.4-0.9,10.6c-0.3,1.5-0.4,16.4-0.2,46.1c0.1,38.8,0.2,44.2,0.8,47.2
		c1.5,7.4,5.7,23.2,7.1,27.2c1.7,4.7,6.4,14.6,9.3,19.6c3.7,6.4,10.1,14.1,12.9,15.4c1.4,0.7,1.6,0.7,2.7-0.1
		c0.6-0.4,1.3-1.5,1.6-2.5c1-3.3,3.9-15.1,4.1-17.5c0.5-4.3,0.9-1.3,1.1,9.8c0.2,10.7,0.5,13.4,1.3,13.7c0.2,0.1,6.3-13.6,13.6-30.3
		c7.2-16.7,13.3-30.4,13.4-30.4s0.6,2.8,1.1,6.1c0.6,4.1,1.2,6.7,1.9,8.3l1,2.1l-0.2-6.8c-0.3-7.5-0.3-7.5,2.2-5.9
		c1.4,0.9,2.7,2.8,2.7,4.2c0,1.4,1.1,3.9,3.2,6.2c2.6,3.4,4.4,6.5,4.4,7.9c0,0.9,0.4,1.4,1.6,2.2c1.9,1.2,3.3,3.7,6.5,12.1
		c4.3,11,4.2,10.8,7.9,11.6c0.8,0.2,1.2,0.6,1.3,1.3c0.1,0.6,0.3,1.5,0.4,2c0.3,1.5,1,0.9,1-0.9c0-1-0.6-2.6-1.8-4.7
		c-1-1.7-2.8-5.4-3.8-8.2c-1.1-2.8-2.6-5.9-3.2-7c-1.3-2.2-1.6-4.5-0.5-5.5c0.9-0.9,1.3-0.4,1.7,1.7c0.2,1.2,0.9,2.2,2.6,4.2
		c1.3,1.4,3.2,4.2,4.4,6.4c2.5,4.8,4.4,7.9,4.8,7.9c0.2,0,1.3-2.9,2.5-6.4c3.7-11.1,4.5-16.1,3.2-19.3
		C499.9,712.8,498.4,710.9,497,709.3z M413,731.3c-0.2,0.2-5.8-7.5-7.9-10.8c-2.1-3.6-5.6-11.5-7-16c-0.4-1.5-1.2-5.7-1.6-9.3
		c-0.4-3.6-1-7.1-1.2-8c-1.1-3.7-1.5-31.3-0.4-31.3c0.2,0,0.4,1.9,0.6,4.3s0.6,6.8,0.9,9.9c0.3,3.1,0.9,9.1,1.4,13.2
		c1.8,16.8,4.1,26.3,8.3,35c1.6,3.2,3.9,7.5,5,9.4C412.2,729.6,413.1,731.2,413,731.3z M434,442.5c1.1-0.7,4.3,0,6.4,1.5
		c1.1,0.8,3.2,2.3,4.4,3.6l2.2,2.1l-2-1.5c-2.6-1.8-5.3-3.3-7.8-4C434,443.3,433.3,443,434,442.5z M449.7,692.1
		c-1.3,2.8-2.9,5.1-4.3,6.5c-1.8,2-2.2,2.2-3.8,2.2c-1.8,0-5.5-1.5-7.6-3.2c-2.6-1.9-7.1-9.8-10.1-17.4c-1.3-3.4-3.9-13.1-4.9-18.9
		c-1-6-1.3-32.6-1.3-123.9v-83.1l2-1.9c2.9-2.8,3.2-2.9,7.1-2.8c2.8,0.1,4.3,0.4,6.8,1.5c4.2,1.7,9.1,5,13.4,9l3.5,3.2l0.2,10.5
		c0.1,5.8,0.4,25.5,0.7,43.7c0.2,18.3,0.7,52.4,1.1,75.7c0.4,23.4,0.7,53.3,0.7,66.4C453.4,686.7,453.7,684,449.7,692.1z
		 M439.8,324.2c-5.7-2.7-9.6-3.8-14-4.3c-2.1-0.2-2.7-0.4-1.8-0.6c1.4-0.4,2.2-0.4,5.6,0c4.4,0.5,8.5,2,18.4,6.6
		c5,2.2,9.2,4.2,9.5,4.2s0.3,0.1,0.2,0.2C457,331.2,448.2,328,439.8,324.2z M458.9,519.2l-0.1,29.6l-0.8-6c-0.4-3.4-0.9-9.6-1-14
		c-0.3-8.8,0.2-48.3,0.7-49.9c0.2-0.7,0.4,1,0.8,4.8C458.8,487.9,459,497.3,458.9,519.2z"/>
	<path class="st0" d="M262.8,473.6h-4.3c-4.1,0-4.4,0.1-6.6,1.3c-3.1,1.7-9.5,6.3-9.5,6.7c0,0.2,0.9,0.7,2,1.1
		c5.7,2.1,11.8,5.9,14.4,9c2.2,2.7,4.4,7.1,5.5,11.5c1,4,1,4.3,1.4,30.1c1,67.9,1.5,84.8,2.6,87.5c0.2,0.6,0.6,6.8,0.8,13.9
		c0.2,7,0.4,13,0.4,13.2c0,0.2,0.2,0.7,0.4,1c0.3,0.5,0.6,0.3,1.8-0.9c0.9-1,2.1-1.6,3.5-2c1.1-0.3,2.8-0.7,3.6-0.9s1.8-0.7,2.2-1.2
		c0.9-1,1.7-1,2.2,0c0.6,1.1,1.2,1,5.1-0.2c2.9-0.9,3.4-1.3,3.9-2.5c0.4-0.9,0.6-6.6,0.9-21.7c0.4-21.6,0.3-21.6,1.2,0l0.3,7.6
		l0.4-3.4c0.4-3.9,0.5-230.1,0-233.8c-0.2-1.6-0.4-2.1-0.6-1.7c-0.4,0.7-1.2,7.6-1.4,12.3c-0.1,1.8-0.1-4.4,0-13.8
		c0.1-12.9,0.3-18.1,0.8-20.8c0.8-4.8,1.3-14.4,0.7-13.8c-0.4,0.4-3,8.2-3,9.1c0,0.3-0.9,3.3-2.1,6.5c-1.1,3.4-2.3,7-2.7,8.2
		c-0.5,2-0.5,2-0.6,0.7c0-0.8,0.2-3.2,0.6-5.2c0.3-2,1.1-7.4,1.6-11.8c2.2-17.4,3.2-20.6,9.8-35.1c3.4-7.4,3.5-8.5,0.8-6.4
		c-0.8,0.6-1.8,1.8-2.3,2.9l-0.9,1.7v-1.6c0-0.8-0.2-1.5-0.4-1.5c-0.7,0-6.3,3.3-10.3,6.1c-2.2,1.6-9.1,6.3-15.2,10.4
		c-12.8,8.6-14.8,10.1-15.4,11.4c-0.7,1.6-0.5,3.7,0.5,4.9c0.8,1,1.3,1.1,4.8,1.4c3,0.2,4.1,0.5,4.4,1c0.7,0.9,0.9,16.9,1.2,70.3
		c0.1,21.7,0.4,41.2,0.6,43.5c0.4,4.6,1,6.3,3,8.8l1.3,1.6l-3.9-2.7L262.8,473.6z M273.3,623.1c-0.7-4.8-1.3-14.2-1-15.8l0.3-1.6
		l0.3,1.4c0.2,0.8,0.4,5.3,0.5,10C273.6,622.7,273.5,624.7,273.3,623.1z M273,524.2c0.4-2.8,0.9-4.6,1-4.2c0.1,0.4,0,9.8-0.3,20.8
		c-0.2,11-0.5,20.1-0.6,20.1c-0.4,0.4-0.8-11.1-0.8-20.8C272.2,531.3,272.4,528.2,273,524.2z"/>
	<path class="st0" d="M189.5,476.2c0.1-0.2,0.9,0.9,1.7,2.5c2.6,4.7,3.3,5.8,3.5,5.3c0.2-0.7-4.8-20.3-8.5-32.8
		c-0.4-1.4-0.9-0.7-1.6,2.5c-0.7,3.6-0.6,7.4,0.5,11.5c0.3,1.3,0.5,2.6,0.4,2.7c-0.1,0.1-0.7-0.6-1.3-1.5c-0.7-0.9-1.3-1.7-1.5-1.7
		c-0.4,0-1.3,2.1-4.9,10.6c-3.8,9.1-3.8,9.8,0.2,6c2.6-2.6,2.9-2.3,0.8,0.4c-1.7,2.3-3.2,5.2-3.2,6.2c0,0.4,1.5,2.2,3.5,4.1
		c1.8,1.8,4,4.3,4.6,5.3l1.1,2l-2.3-2.1c-5.5-5-5.9-4.5-1.7,2.5c3.7,6.2,5.7,9.2,6.3,9.2c0.6,0,2.9-5,4.6-10.2
		c1.4-4.2,1.7-5.6,1.7-8.4c0-3-0.2-3.9-1.9-8.5C190.2,478.9,189.4,476.5,189.5,476.2z"/>
	<path class="st0" d="M841.5,476.2c0.1-0.2,0.9,0.9,1.7,2.5c2.6,4.7,3.3,5.8,3.5,5.3c0.4-1.1-8.4-33.5-9.1-33.5
		c-0.2,0-0.6,1.4-1,3.2c-0.8,3.5-0.7,7.2,0.4,11.5c0.3,1.3,0.5,2.6,0.4,2.7c-0.1,0.1-0.8-0.7-1.6-1.7l-1.4-1.8l-1.1,2.7
		c-2.1,4.7-6,14.3-6.3,15.4c-0.4,1.6,0.3,1.4,2.7-0.7c1.1-1,2.1-1.8,2.2-1.8c0.1,0-0.4,1.1-1.3,2.3c-2,3-3,4.9-3,5.8
		c0,0.4,1.6,2.3,3.7,4.4c2,1.9,4.1,4.4,4.6,5.4l1,1.8l-2.5-2.2c-5.6-5.1-6-4.5-1.8,2.5c4.1,6.8,5.8,9.3,6.4,9.1
		c0.7-0.2,2.7-4.4,4.5-9.9c1.5-4.4,1.8-5.7,1.8-8.6c0-3-0.2-3.9-1.9-8.5C842.3,478.9,841.4,476.5,841.5,476.2z"/>
	<path class="st0" d="M171.4,490.5c-0.7-1.1-2.9-3.1-7.8-6.6c-3.8-2.8-6.8-5.1-6.8-5.2c0-0.2,2.1,1,6.5,3.7c3.7,2.2,6,3.4,6.3,3.1
		c0.5-0.5-6.8-7-11.6-10.2c-7.9-5.2-15.3-8.7-15.3-7.1c0,0.4,1.3,2.1,4.6,5.8l2.8,3.1l-2-1.3c-1.5-0.9-2.1-1.1-2.2-0.7
		c-0.1,0.3,1.1,4.7,2.6,9.7c2.1,7.4,3.1,9.6,4.3,11.4c0.9,1.2,1.8,2.3,2.1,2.5c0.7,0.2,0.6-2.3-0.4-6.6c-0.5-2-0.8-3.9-0.7-3.9
		c0.1-0.1,1.6,2.1,3.5,5.1s4,6.6,5,8.1l1.7,2.8l5.5,2.1c3,1.2,5.9,2.1,6.3,2.1c0.8,0,0.8-0.2,0.6-1.6
		C175.5,503.1,172.3,492,171.4,490.5z"/>
	<path class="st0" d="M823.3,490.5c-0.7-1.1-2.9-3.1-7.8-6.6c-3.8-2.8-6.8-5.1-6.8-5.2c0-0.2,1.8,0.8,6.8,3.9c6.8,4.1,7.6,4,2.9-0.6
		c-6.8-6.6-24-16.5-24-13.9c0,0.4,1.1,1.8,4.8,6l2.6,2.9l-2-1.3c-1.5-0.9-2-1.1-2.1-0.7c-0.1,0.3,1.1,4.7,2.7,9.7
		c2.1,7.1,3.1,9.6,4.3,11.4c0.8,1.2,1.8,2.3,2,2.5c0.7,0.2,0.6-2.3-0.4-6.6c-0.5-2-0.8-3.9-0.7-3.9c0.1-0.1,1.2,1.4,2.5,3.5
		c1.2,2,3.5,5.6,4.9,8.1l2.8,4.4l5.4,2.1c3,1.2,5.8,2.2,6.4,2.2c0.9,0,0.9-0.1,0.7-1.6C827.6,503.2,824.2,492,823.3,490.5z"/>
	<path class="st0" d="M222.3,476.3l-2.1,1.3l2.2-2.6c1.2-1.4,2.9-3.3,3.6-4.1c2.5-2.8,1.3-3.4-3-1.5c-5.1,2-16.9,10.2-21,14.6
		c-3.3,3.3-1.6,2.9,5.7-1.6c7.7-4.6,7.4-4.2-1.3,2.2c-4.8,3.6-7.1,5.5-7.7,6.6c-1.6,2.9-5.5,17-4.8,17.7c0.2,0.2,2.2-0.4,4.5-1.2
		c8.6-3.3,7.5-2.2,13-11.2c2.7-4.4,5-7.9,5.1-7.8c0.1,0.1-0.2,1.8-0.7,3.9c-0.9,4-1.1,6.7-0.4,6.7c0.5,0,2.9-3.2,3.7-5
		c0.8-1.8,5.8-19,5.7-19.2C224.5,475.1,223.5,475.6,222.3,476.3z"/>
	<path class="st0" d="M877.5,471.5c1-1.1,1.8-2.3,1.8-2.7c0-0.7-1.6-0.5-4.3,0.5c-3.3,1.3-7.1,3.7-12.6,7.7
		c-5,3.7-10.6,8.6-10.1,9.1c0.3,0.3,2.6-0.8,6.3-3.1c4.4-2.7,6.5-3.9,6.5-3.7c0,0.1-3.1,2.5-6.8,5.2c-4.8,3.6-7,5.5-7.7,6.6
		c-1.5,2.8-5.5,17-4.8,17.7c0.2,0.2,2.5-0.4,4.9-1.4c8-3.1,7.2-2.5,12.4-10.9c2.6-4.1,4.8-7.8,5.1-8.1c0.3-0.4,0.2,0.8-0.4,3.6
		c-1.1,4.6-1.3,7.4-0.4,7.1c0.2-0.1,1.2-1.2,2.1-2.6c1.3-1.9,2.1-4.1,4.4-11.8c1.5-5.3,2.8-9.6,2.7-9.7c-0.1-0.1-1,0.4-2.1,1l-2,1.1
		l1.6-1.8C874.9,474.4,876.5,472.7,877.5,471.5z"/>
	<path class="st0" d="M313.5,679.3c-11-7.5-21.9-12.7-32.1-15.2c-5-1.2-15.5-1.4-20.2-0.4c-12.5,2.8-22.6,10.1-29.6,21.3
		c-3.9,6.4-5.8,11-6.4,15.8c-1.1,9.1,1.6,16.2,7.8,19.8c1.8,1,7.7,3,8,2.6c0.1-0.1-0.9-0.9-2.2-1.7c-3.1-1.8-6.1-5.1-7.4-7.7
		c-0.6-1.4-0.9-3.1-1-5.9c-0.2-6.2,1.2-10.3,5.3-14.7c3.8-4.1,8.4-6.3,13.9-6.7l3.1-0.2l-4.4,1.4c-5.1,1.7-8.3,3.6-10.9,6.3
		c-1.7,1.8-4.1,5.3-4.1,6.1c0,0.2,1.1-0.7,2.5-1.8c5-4.6,11.4-6.4,20.5-6.1c6,0.2,8.6,0.9,15.3,4.4c6.2,3.3,13.3,9.8,17.6,16.5
		c3,4.6,3.7,4.9,6.1,2.6c2.3-2.3,22.5-29.6,23.1-31.3C318.7,683.3,317.3,681.9,313.5,679.3z M275.3,689.8c-0.1,0.1-2.5-0.6-5.1-1.5
		c-2.8-0.9-5.6-1.6-6.4-1.6s-1.7-0.2-2-0.4c-1.1-0.7,6.3,0,8.5,0.9C272.8,688.2,275.5,689.6,275.3,689.8z M279.3,668.1
		c-2.2-0.3-7.4-0.6-11.3-0.6c-6.8,0-7.1-0.1-5.4-0.6c2.7-0.8,15.2-0.5,18.3,0.4C284.2,668.3,283.7,668.6,279.3,668.1z"/>
	<path class="st0" d="M655.9,701.5c-0.5-0.3-1.6,0.6-5.7,4.6c-2.8,2.8-5,4.9-5.1,4.8c-0.1-0.1-0.7-1.3-1.2-2.6
		c-2.2-4.9-6.8-10.5-10.3-12.3c-4.6-2.3-11.2-3.3-16.2-2c-7.9,1.8-13.5,4.8-21.6,11.6c-8.4,7-22.4,22.7-29.5,33
		c-2.8,3.9-6.5,10.6-6.5,11.4c0,1.1,1,0.1,5.3-5.5c6-7.9,10.9-13.3,15.1-16.6c5.7-4.6,10.5-6.7,16.2-7.2l2.9-0.2l-3.2,0.8
		c-4.5,1.2-9.3,3.7-13,6.5c-3.1,2.5-5.4,4.7-4.9,4.7c0.2,0,2.3-1.1,5-2.5c5.4-2.9,8-3.7,12.8-4.3c6-0.7,11.8,0.7,17.4,4.2
		c5.3,3.4,8.7,8.5,10.1,15.2c0.7,3.8,1.2,4.8,2,4.8c0.7,0,4.4-3.8,17.4-18.4c12.9-14.3,17-19.2,17-19.7
		C659.8,711,656.4,701.9,655.9,701.5z M636.1,709.7c-4.5-6.8-5.6-8.1-8.8-9.6l-3.2-1.6l2,0.2c1.1,0.2,3,0.7,4.1,1.3
		c2.5,1.3,4.7,4.2,6,7.9C637.6,711.4,637.5,711.9,636.1,709.7z"/>
</g>
</svg>
