<?xml version="1.0" encoding="utf-8"?>
<!-- Generator: Adobe Illustrator 24.1.2, SVG Export Plug-In . SVG Version: 6.00 Build 0)  -->
<svg version="1.1" id="Слой_1" xmlns="http://www.w3.org/2000/svg" xmlns:xlink="http://www.w3.org/1999/xlink" x="0px" y="0px"
	 viewBox="0 0 868 868" style="enable-background:new 0 0 868 868;" xml:space="preserve">
<style type="text/css">
	.st0{fill:url(#SVGID_1_);}
	.st1{fill:#32AD78;}
</style>
<g>
	
		<radialGradient id="SVGID_1_" cx="177.9978" cy="690.0021" r="1" gradientTransform="matrix(82400 0 0 -82400 -14625800 56897388)" gradientUnits="userSpaceOnUse">
		<stop  offset="0.655" style="stop-color:#060E23"/>
		<stop  offset="1" style="stop-color:#2DAC5C"/>
	</radialGradient>
	<path class="st0" d="M206,11h456c101.6,0,184,82.4,184,184v456c0,101.6-82.4,184-184,184H206c-101.6,0-184-82.4-184-184V195
		C22,93.4,104.4,11,206,11z"/>
</g>
<g>
	<path class="st1" d="M513.2,588.4c-0.2-3.2-0.5-8.7-0.6-12.3l-0.2-6.5l1.9,5.9c2.7,8.3,4.6,11.6,6.4,10.9c0.8-0.3,0.7-1.8-0.2-10.2
		c-0.7-6.3-0.9-12-1.3-51.4c-0.2-24.4-0.5-44.5-0.7-44.6c-0.1-0.2-0.4-22.9-0.6-50.3c-0.2-27.5-0.5-50.4-0.6-50.9
		c-0.2-0.8-0.5-0.9-2.7-1l-2.4-0.1l5.2-8.2c4.5-7.2,11.3-18.6,13-22l0.6-1.1l-2.1,0.9c-7.6,3.1-11.2,3.5-14.1,1.5
		c-3.8-2.6-20.4-17.3-20.6-18.3c-0.2-0.6-0.3-4-0.3-7.7l0-6.7l5.6,0.2c6.7,0.4,9.1-0.1,9.1-1.6c0-0.6-0.2-1-0.4-1
		c-1.3,0-8.5-4-10.3-5.7c-1.9-1.9-2-2.1-1.9-3.8l0.1-1.8l6.4-0.2c3.5-0.1,6.5-0.3,6.7-0.5c0.2-0.2,0.2-0.7,0-1.2
		c-0.2-0.7-1.3-1.6-3.6-2.9c-3.3-1.9-5.6-3.7-5.6-4.4c0-0.5,3-1.3,5.3-1.3c2.7,0,3.8-0.5,3.4-1.7c-0.2-0.7-1.8-1.4-6.2-3.1
		c-5.8-2.2-7.4-3.1-7.4-4.1c0-0.9,0.9-1.1,5.4-1.6c2.4-0.2,4.5-0.6,4.6-0.7c0.6-0.6-0.4-2.4-2-3.5c-2.3-1.6-5.6-5.4-7-8.2
		c-0.7-1.2-1.5-3.7-1.9-5.5c-0.4-1.8-1-4-1.3-4.9l-0.6-1.6l-0.7,1c-0.3,0.6-0.9,2.2-1.3,3.7c-0.7,3.1-2.1,5.8-4,7.6
		c-0.7,0.7-3.4,2.7-5.8,4.3c-3.7,2.5-4.5,3.2-4.6,4.1c-0.2,1.3-0.2,1.3,7.7,2c3.3,0.2,6.1,0.6,6.3,0.8c0.4,0.4-1.1,1.6-4.2,3.1
		c-3.7,1.8-7,3.9-7.4,4.7c-0.3,0.6-0.2,0.9,0.2,1.4c0.5,0.5,1.7,0.7,5.9,0.7c4.3,0,5.3,0.1,5.3,0.6c0,0.7-1.5,1.2-5.3,1.9
		c-4.1,0.7-8.5,2.7-9,4c-0.3,0.8-0.2,1.2,0.3,1.8c0.7,0.7,8.1,2.5,12.5,3.1c4.7,0.5,3.5,1.6-4,4c-6.8,2.1-8.3,2.8-8.6,4.2
		c-0.5,2,0.9,2.7,10.1,5.2l3.5,0.9l0.1,5c0.1,4.3,0,5-0.5,5c-0.3,0-2.1-1.2-4-2.7c-1.8-1.5-3.6-2.7-3.9-2.7c-1.2,0-3.3,1.2-4.8,2.9
		c-0.9,1-5.2,6.8-9.6,13l-8,11.1l-0.3-6.4c-0.2-3.6-0.2-30.3,0-59.5l0.2-53.1l1.1-0.6c1.5-0.8,2.2-0.8,5.8,0.2
		c3.8,1.1,14.4,1.1,27.1,0.1c11.9-0.9,14.9-0.9,17.9,0.2c2.8,1.1,5.7,2.5,9.4,4.7c1.5,0.9,2.9,1.5,3,1.4c0.1-0.2-0.5-1.1-1.5-2.1
		c-3.8-4.1-9-13-15.1-25.9c-1-2-2.4-4.4-3.2-5.2c-1.4-1.5-1.4-1.5-3.9-1.2c-2.2,0.2-10.1,0-26.4-0.9c-7-0.4-20.6,0.5-22.5,1.4
		c-1.8,0.9-1.9,1.2-2.2,14.7c-0.2,5.9-0.4,11.2-0.7,11.9l-0.3,1.1l-0.6-1.5c-1.1-2.5-1.5-6.3-1.8-19.3c-0.2-6.9-0.4-12.7-0.6-13
		c-0.2-0.2-0.9-0.5-1.8-0.7c-1.3-0.2-1.6-0.1-1.9,0.9c-0.2,0.6-0.4,3.3-0.4,5.9c0,2.6-0.2,5.6-0.3,6.6c-0.3,1.8-0.3,1.8-0.8-1.7
		c-0.9-5.8-1.7-7.3-3.1-5.1c-1.1,1.7-1.8,5.7-2.3,13.4c-0.4,7.1-0.8,9.3-1.4,7.5c-0.1-0.4-0.4-4.2-0.7-8.3c-0.2-4.2-0.7-8-0.9-8.6
		c-0.4-0.9-0.8-1.1-2.1-1.1c-0.9,0-1.6,0.2-1.8,0.3c-0.1,0.2-0.7,0.5-1.2,0.7c-0.6,0.2-1.1,0.9-1.1,1.5l0.3,71.9
		c0.2,40.2,0.4,109.1,0.7,153.2l0.4,80.1l1.4,18.2c1.9,23.7,2,24.2,2.3,25.1c0.4,1,0.7-6,1.6-46.2c0.9-35.8,1.6-54.5,1.9-56.5
		c0.2-1.5,0.7-1.7,1.2-0.4c0.4,1.3,0.7,80.6,0.2,94.6l-0.3,11.4l-1.5,2.9c-0.8,1.6-3.4,5.4-5.6,8.4c-5.5,7.3-6.3,8.9-6,11.9
		c0.1,1.2,2.1,8.5,4.4,16.1c5.5,18.3,7.5,22.6,15.7,33.1c8.3,10.6,14.8,17.6,16.9,18.2c1.3,0.4,4.9-0.3,6.6-1.2
		c1.3-0.7,35.4-36.4,44.3-46.4C513.8,594.8,513.6,595.3,513.2,588.4z M459.1,203.8c1.7-0.4,39.9-0.5,39.5-0.2
		c-0.7,0.7-35.8,1.5-39.3,0.9C457.6,204.1,457.5,204.1,459.1,203.8z M453.4,635.3c-2.3-2.1-6.6-8.5-13.5-20.2
		c-1.8-2.9-4.1-8.6-6-14.1c-2.4-7.1-1.8-6.5,3,2.7c2.6,5.1,6.6,12.4,9,16.4c4,6.8,7.2,12.7,8,15
		C454.3,636.1,454.3,636.1,453.4,635.3z M492.8,390c-1.6,1.3-2.7,2.7-3.4,4.3l-1.1,2.3l0,41.5c0,22.8,0.2,63.3,0.3,89.9l0.3,48.4
		l1.2,3.3c3.2,9.2,3.2,18.6,0,27.3c-1.2,3.1-3.2,5.4-4.5,5c-4-1.2-13.9-10.5-18.6-17.5c-3.5-5.2-6.9-12.1-8.7-17.3
		c-1.6-5-1.6-8.4,0-16.4l1.3-6l-0.2-37.6c-0.1-20.7-0.4-51.6-0.6-68.5c-0.2-17-0.5-43.8-0.7-59.7l-0.2-28.8l1.5-1.7
		c1.5-1.8,2.1-2,4.9-2.1c1.6,0,2.1,0.3,12.1,9c13.1,11.3,19.2,17,19.7,18.3C496.6,385.3,495.5,387.7,492.8,390z M488.9,336.3
		c-2.5-2.3-6-6.8-6-7.4c0-0.7,2.2,0.7,5.3,3.4c1.7,1.5,5,4.5,7.4,6.6c2.4,2.2,6.1,5.4,8.2,7.2c2.1,1.8,4.5,3.8,5.1,4.5l1.2,1.3
		l-2-1.1C501.5,347.1,494.8,342,488.9,336.3z"/>
	<path class="st1" d="M332.8,206.9c5.9-4.5,10.6-8.1,10.5-8.1c-0.2,0-3.2,0.9-6.7,2.1c-13.9,4.5-14.3,4.5-76,4.3
		c-50.5-0.2-50.7-0.2-56.3-2.3c-1.3-0.5-3.6-1.7-5-2.7l-2.7-1.8l-1.8,2.6c-2.6,3.6-6.3,6.8-14.2,12.6c-7.6,5.4-22.8,17.7-27.1,21.9
		c-3.5,3.4-6.5,7.2-7.9,10.3c-1,2.1-1.1,2.7-1.1,6.8c0,4.1,0.1,4.7,1.1,6.6c2.3,4.4,6.4,7.6,11.5,9.2c7.2,2.2,17-0.5,22.7-6.2
		c4-4,5.6-8.4,4.7-13l-0.3-1.6l-0.6,2c-0.8,2.6-4,5.8-7.7,7.6c-2.5,1.2-3.2,1.4-6.8,1.5c-9.6,0.4-14.4-2.7-14.4-9.3
		c0-6.5,5.3-12,14.1-14.4c3.1-0.9,3.8-0.9,44.6-1.1c30.3-0.2,42.1-0.4,43.7-0.7c2.3-0.5,5.5-2,7.6-3.5l1.2-0.9l-0.7,1
		c-0.4,0.6-1.1,1.6-1.5,2.2c-0.8,1.2-0.8,2.2-0.8,77.3c0,81.1,0.3,105.2,1.4,110c0.9,4,0.8,16.6-0.2,35c-0.8,13.7-0.9,20.6-1.1,85.4
		c-0.2,63.3-0.2,70.6-0.8,71.5c-0.4,0.6-1.5,2-2.6,3.3c-2.4,2.8-2.9,3.7-2.9,5.4c0,1.6,0.9,2.5,4,4.2c1.2,0.6,4.2,2.8,6.7,4.8
		c5.4,4.3,5.8,4.6,6.8,4c1.8-0.9,2.6-2.4,3.2-5.8c0.4-1.8,0.9-3.4,1.2-3.6c0.2-0.1,1.4,0.3,2.6,0.9c2,1,2.3,1.1,4.2,0.6
		c2.7-0.7,3.4-1.8,6.1-9.6l2.2-6.1l0-39.2c0-32.7-0.1-40.8-0.7-48.4c-0.4-5.3-0.9-18.8-1.1-31.9c-0.2-12.5-0.7-30.1-0.9-39
		c-0.8-23.5-0.7-26.7,0.7-32.9c1.1-4.9,1.1-5.7,1.4-20.6c0.2-8.5,0.4-40.6,0.4-71.3c0.1-30.7,0.2-64.8,0.4-75.8l0.2-19.9l2.7,3.6
		c1.5,2,3.7,4.7,4.9,6l2.2,2.5l1.1-3.3c1.6-4.4,4.2-9.6,6.8-13.2C315.8,220.4,321.2,215.6,332.8,206.9z M188.5,227
		c-6,0-6.5-0.1-3.5-0.3c6.1-0.4,9.4-0.4,10,0C195.4,226.9,193.2,227,188.5,227z M264,622.7c-0.3,0.3-4-2.3-4-2.9
		c0-0.9,0.6-1.2,0.7-0.4c0.1,0.4,0.9,1.3,1.8,1.9C263.5,622,264.1,622.6,264,622.7z M269.8,452.4c-0.6,18-1.1,27.4-1.8,30.8
		c-0.6,2.8-0.6,2.7-0.4-4.1c0.5-20.9,1-31.4,1.6-35.7c0.4-2.5,0.8-4.5,0.9-4.5C270.2,439.1,270.1,445.1,269.8,452.4z M289.7,597.3
		c-0.6,5-0.9,0.6-1.2-18.6c-0.1-10.7-0.4-20.7-0.5-22.3c-0.1-2-0.1-2.7,0.2-2.2c0.2,0.4,0.6,3,0.8,5.9
		C289.6,567,290.1,594.1,289.7,597.3z M288,396c0.2-0.6,0.3-15,0.4-32.2c0-23.9,0.2-31.1,0.5-30.5c0.2,0.3,0.6,2.1,0.7,4
		c0.2,1.8,0.2,14.8,0.1,28.7c-0.2,25-0.4,29.6-1.7,30.7C287.9,396.8,287.9,396.5,288,396z M291.3,210.5c-8.9,0.5-60.6,0.1-61.2-0.5
		c-0.5-0.5,46.9-0.6,60.2-0.1l7.2,0.2L291.3,210.5z"/>
	<path class="st1" d="M683.1,360.2c0.2-0.2,0.4-14.5,0.6-31.7c0.2-22,0.4-32.2,0.8-34.2c2.5-14.2,5.4-19.7,17.3-32.5l5.4-5.8
		l-1.6-4.6c-0.9-2.5-1.8-4.8-2-5c-1.1-1.1-1.7-0.7-9.4,5.6c-3.5,2.9-4.3,3.1-7.8,1.9c-1.8-0.6-3.4-2.1-15.5-14.3
		c-7.4-7.5-13.8-13.7-14.1-13.7c-0.8,0-3.3,2.8-15.7,17.2c-11,12.7-14.1,16.2-14.8,16.5c-0.4,0.2-2-1.9-15.4-21.3
		c-7.9-11.4-9-12.8-10.3-12.8c-0.8,0-3.4,2.6-12.1,12.2c-6.1,6.7-12.3,13.4-13.7,14.9c-1.4,1.5-2.6,2.7-2.8,2.7
		c-0.1,0-0.2-0.5-0.2-1.1c0-1.8-2-5.3-4.3-7.6c-3.4-3.3-21.4-13.7-23.8-13.7c-1.7,0-2.4,0.7-8.4,7.5c-3,3.4-7.8,8.7-10.5,11.7
		c-7.1,7.8-7.4,8.2-7.4,11.2c0,1.4,0.3,3,0.6,3.7l0.5,1.2l0.3-1.4c0.2-0.8,0.8-2.5,1.4-3.8l1.1-2.4l3.1,0.3c2.5,0.2,3.8,0.6,6.5,1.9
		c3.8,1.8,8,5.5,9.6,8.3l1,1.7l0.2,52.1c0.3,57.4,0.1,53.6,2.8,54.5c0.7,0.3,1.1,0.6,1.1,0.8c-0.1,0.2-2.1,1.8-4.6,3.5
		c-4.4,3.2-5.6,4.6-3.9,4.6c1.4,0,2.9,0.9,3.7,2.2c0.8,1.3,0.8,2.7,1.1,76.8l0.2,75.5l2.6,5.2c2.5,5,3,6.7,2.2,7.2
		c-0.6,0.4-0.5,0.9,0.2,1.1c0.3,0.1,1.8,2.5,3.3,5.4c2,4,2.5,5.1,1.7,4.3c-0.6-0.5-1-0.8-1-0.7c0,0.2,1.4,3,3.1,6.3
		c2.7,5.3,6.1,10.3,6.6,9.7c0.1-0.1-0.6-1.6-1.5-3.2c-2-3.6-2.7-6.5-3.3-14.6l-0.4-5.9l1.3-3.2c0.7-1.8,1.5-3.6,1.8-4
		c0.6-0.9,0.6-0.9,0.6,0.4c0,0.7-0.2,2.2-0.4,3.5c-0.6,2.8,0,5.1,1.6,7c0.7,0.7,1.5,1.9,1.9,2.7c0.7,1.3,0.7,1.4,1.3,0.6
		c0.3-0.4,1.1-1.7,1.6-2.7l1-2l-0.2-41.4c-0.1-26.2-0.1-40.4,0.2-38.7c0.6,4.2,2,24.1,2.5,35.8c0.2,5.8,0.5,10.7,0.6,10.8
		c0.1,0.1,0.2,0.1,0.4,0c0.6-0.6,1.6-42.5,2-75.9l0.1-11.2l-2-0.2l-2-0.3l1.8-1.1l1.8-1.1l0.2-82l0.2-82l6.2-6.7l6.2-6.7l4.7,7.1
		c2.6,3.8,5.6,8.6,6.8,10.6l2.1,3.6l0.3,141.1c0.1,77.6,0.4,149.1,0.5,158.8c0.3,19.3,0.3,19.6,2.4,18.5c0.6-0.3,2.4-2,3.9-3.7
		l2.8-3.1l0.3-11.5c0.2-6.3,0.4-11.4,0.4-11.4c0.4,0.4,2.2,10.3,2.4,13.4c0.3,3.8,0.9,4.5,2.5,3.6c1.2-0.7,10.1-10.8,10.7-12
		c0.4-0.9,1.1-6.1,1.7-12.1c0.2-2,0.5-4.3,0.8-5.1c0.2-0.9,0.8-5.5,1.3-10.2c0.8-8.4,0.8-11.1,0.8-112.1V330.9h-2.5h-2.6l1.8-1.1
		c3.6-2,3.3,1.1,3.3-29.8v-27.4l3.6-3.9c8.1-8.9,9.2-10,9.9-9.5c1.3,0.8,27.4,29.3,28.3,30.8c0.2,0.4-0.7,2-3.1,5.5
		c-1.9,2.7-4.1,6-4.9,7.4c-2,3.5-3.9,9.8-5.8,18.8l-1.7,7.8l-0.2,42.1c-0.1,23.1-0.1,43.5,0.1,45.2l0.3,3.1l2.5,0.1
		c1.3,0.1,2.6,0.3,2.8,0.4c0.2,0.2-0.4,2.9-1.4,6c-2.7,9.2-2.8,9.9-3.2,30.6c-0.7,33-1,167.7-0.4,173.2c0.6,6,2.1,12.8,3.4,15.3
		c2.3,4.5,12.7,18.4,13.8,18.4c1,0,1-4.7,0-10.3c-0.5-2.8-0.8-5.1-0.7-5.2c0.1-0.1,0.8,1.3,1.6,3c1.4,3.2,3.9,7.5,4.4,7.4
		c0.4,0,18.4-20.4,21.4-24.2c2-2.5,4-6.5,3.5-7.1c-0.1-0.1-1.4,1.4-2.9,3.3c-2.8,3.5-4.4,5.1-2.9,2.9c2.1-3.2,3.1-5.4,3.1-7
		c0-2.2-1.1-5.9-1.8-5.9c-0.8,0-4.6,4.3-9.3,10.5c-2.2,2.9-4.1,5.4-4.3,5.4s0.2-0.6,0.8-1.3c1.6-2.1,3.5-6.5,3.5-8.1
		c0-1-0.4-2-1.3-3.1c-2.4-3.3-2.5-3.8-2.8-24.8c-0.2-10.6-0.4-38.6-0.4-62.3l0-43.1l-2.1-1l-2.2-0.9l2-0.2l2-0.1l0.2-48.7l0.2-48.7
		l1.2-2c1.7-2.9,7.3-8.4,10.2-10.1c1.3-0.8,3.8-2,5.5-2.7c1.7-0.7,3.1-1.5,3.1-1.7c0-0.2-2.6-2-5.7-3.9c-3.1-1.9-7.6-4.6-9.8-6.1
		c-2.3-1.4-6-3.6-8.3-4.9l-4.2-2.2l3.3-0.2C681.2,360.7,682.9,360.4,683.1,360.2z M558.7,245.4c-0.5,0.5-13.7-5.7-13.7-6.5
		c0-0.6,0.4-0.4,4.9,1.5C554.1,242.2,559.1,245,558.7,245.4z M616.3,258.6c-3.9-3.7-13-16.9-12.9-18.7c0-0.4,0.7,0.4,6.5,8.4
		c2.8,3.8,5.8,8.1,6.7,9.6l1.6,2.6L616.3,258.6z M663.9,241.7c-3.8-5.2-3-5.2,2.3,0c3.8,3.6,13.8,15.8,13.2,16
		C678,258.2,670.4,250.4,663.9,241.7z"/>
	<path class="st1" d="M420.3,625.8c-2.6-3-4.3-6.3-6.8-12.9c-3.7-10-7.6-26.4-9.2-39.3c-0.8-6.5-0.8-7.7-0.7-157.8l0.1-151.3
		l0.9-2.6c0.5-1.4,2-4.8,3.4-7.4l2.5-4.9v-3.8c0-4.4-0.6-5.7-2.4-5.5c-0.8,0.1-1.3,0.7-2.5,2.7c-0.8,1.5-2,2.9-2.7,3.4
		c-2.5,1.6-3.9,1.2-24.9-5.8c-21.3-7.1-20.9-7-27.3-6.1c-4.2,0.5-15,7-21.7,12.8c-4.6,4-12.8,12.6-15.4,16
		c-3.9,5.2-7.6,14.1-7.4,17.6c0.1,1.3,0.3,1.6,1.2,1.7c0.9,0.1,1.4-0.4,3.4-3.1c3.6-4.9,4.2-5.4,8-5.4c2.5,0,4.2,0.3,7.8,1.5
		c10.1,3.1,43.2,14.2,44.6,15c2.8,1.3,2.9,1.9,2.7,9.4c-0.3,7.3-1.2,12.4-2.9,15.7c-1.3,2.5-4.9,5.9-8.9,8.3l-3,1.8l2.6,0.1
		c4.5,0.2,12.9-2.2,17.3-4.8c1.8-1.1,2.2-1,1.2,0.1c-0.5,0.5-1.1,2.1-1.5,3.8c-0.4,1.6-1.1,4-1.6,5.5c-0.8,2.4-0.9,3.7-1.1,13.1
		l-0.2,10.4l-1.4-2.5c-2-3.7-2.5-4-5.9-4c-2.3,0-3.4,0.2-5.1,1.1c-3.2,1.6-12.6,8.1-21.5,14.8c-8.7,6.5-9.2,6.8-10.2,6.5
		c-0.5-0.2-0.6-1-0.5-5.2l0.1-4.9l3.5-0.9c8.9-2.4,10.4-3.2,10.1-5.1c-0.2-1.3-2-2.3-8.6-4.3c-7.7-2.4-8.5-3.1-4.5-3.8
		c12.3-2.3,14-3,13.2-5c-0.4-1.2-4.9-3.2-8.8-4c-4.3-0.8-5.5-1.2-5.5-1.8c0-0.5,0.9-0.6,5.3-0.6c4.3,0,5.4-0.1,5.9-0.7
		c0.5-0.4,0.5-0.8,0.2-1.4c-0.4-0.8-3.6-2.9-7.4-4.7c-3.1-1.5-4.6-2.7-4.2-3.1c0.2-0.2,3-0.5,6.3-0.8c7.9-0.6,7.8-0.6,7.7-2
		c-0.1-0.9-0.9-1.7-4.7-4.2c-2.5-1.7-5.2-3.6-5.8-4.3c-1.8-1.7-3.2-4.5-3.9-7.6c-0.4-1.5-0.9-3.1-1.3-3.7l-0.7-1l-0.6,1.6
		c-0.3,0.9-0.9,3.1-1.3,4.9c-0.4,1.8-1.3,4.4-2,5.7c-1.2,2.3-4.7,6.3-7.8,8.8c-1.6,1.3-1.7,2.6-0.4,2.9c0.5,0.2,2.5,0.4,4.4,0.5
		c3.6,0.3,4.9,0.7,4.9,1.5c0,1.1-1.6,2-7.2,4c-4.3,1.6-6.1,2.5-6.3,3c-0.5,1.2,0.6,1.8,2.9,1.8c2.3,0,5.6,0.7,5.6,1.3
		c0,0.7-2.3,2.5-5.6,4.4c-2.2,1.3-3.4,2.2-3.6,2.9c-0.2,0.5-0.1,1.1,0,1.2c0.1,0.2,3.1,0.4,6.7,0.5l6.4,0.2l0.1,1.8
		c0.1,1.7,0,1.9-1.9,3.8c-1.8,1.7-8.9,5.7-10.3,5.7c-0.2,0-0.4,0.4-0.4,1c0,1.6,2.3,2,9.1,1.7l5.7-0.2l-0.2,7.4
		c-0.2,8.5,0.2,7.8-4.9,12.2c-3.4,2.9-5.1,5.6-5.9,9.2c-0.5,2.4-0.1,59,0.7,85.8c1,36.3,1,58.6-0.1,55.2c-0.2-0.7-0.5-9-0.7-18.6
		c-0.2-9.6-0.4-17.6-0.4-17.8c-0.3-1.5-0.9,3.7-1.2,10.6c-0.2,4.5-0.6,9.2-0.9,10.4c-0.3,1.5-0.4,16.1-0.2,45.2
		c0.1,38,0.2,43.3,0.8,46.2c1.5,7.2,5.6,22.7,7,26.6c1.7,4.6,6.3,14.3,9.1,19.2c3.6,6.3,9.9,13.8,12.6,15.1c1.4,0.7,1.6,0.7,2.6-0.1
		c0.6-0.4,1.3-1.5,1.6-2.4c1-3.2,3.8-14.8,4-17.1c0.5-4.2,0.9-1.3,1.1,9.6c0.2,10.5,0.5,13.1,1.3,13.4c0.2,0.1,6.2-13.3,13.3-29.7
		c7.1-16.4,13-29.8,13.1-29.8s0.6,2.7,1.1,6c0.6,4,1.2,6.6,1.9,8.1l1,2.1l-0.2-6.7c-0.3-7.3-0.3-7.3,2.2-5.8
		c1.4,0.9,2.6,2.7,2.6,4.1c0,1.4,1.1,3.8,3.1,6.1c2.5,3.3,4.3,6.4,4.3,7.7c0,0.9,0.4,1.4,1.6,2.2c1.9,1.2,3.2,3.6,6.4,11.9
		c4.2,10.8,4.1,10.6,7.7,11.4c0.8,0.2,1.2,0.6,1.3,1.3c0.1,0.6,0.3,1.5,0.4,2c0.3,1.5,1,0.9,1-0.9c0-1-0.6-2.5-1.8-4.6
		c-1-1.7-2.7-5.3-3.7-8c-1.1-2.7-2.5-5.8-3.1-6.9c-1.3-2.2-1.6-4.4-0.5-5.4c0.9-0.9,1.3-0.4,1.7,1.7c0.2,1.2,0.9,2.2,2.5,4.1
		c1.3,1.4,3.1,4.1,4.3,6.3c2.4,4.7,4.3,7.7,4.7,7.7c0.2,0,1.3-2.8,2.4-6.3c3.6-10.9,4.4-15.8,3.1-18.9
		C423.1,629.2,421.7,627.3,420.3,625.8z M338,647.3c-0.2,0.2-5.7-7.3-7.7-10.6c-2.1-3.5-5.5-11.3-6.9-15.7c-0.4-1.5-1.2-5.6-1.6-9.1
		c-0.4-3.5-1-7-1.2-7.8c-1.1-3.6-1.5-30.7-0.4-30.7c0.2,0,0.4,1.9,0.6,4.2c0.2,2.3,0.6,6.7,0.9,9.7c0.3,3,0.9,8.9,1.4,12.9
		c1.8,16.5,4,25.8,8.1,34.3c1.6,3.1,3.8,7.3,4.9,9.2S338.1,647.2,338,647.3z M358.6,364.4c1.1-0.7,4.2,0,6.3,1.5
		c1.1,0.8,3.1,2.3,4.3,3.5l2.2,2.1l-2-1.5c-2.5-1.8-5.2-3.2-7.6-3.9C358.6,365.2,357.9,364.9,358.6,364.4z M374,608.9
		c-1.3,2.7-2.8,5-4.2,6.4c-1.8,2-2.2,2.2-3.7,2.2c-1.8,0-5.4-1.5-7.4-3.1c-2.5-1.9-7-9.6-9.9-17c-1.3-3.3-3.8-12.8-4.8-18.5
		c-1-5.9-1.3-31.9-1.3-121.4l0-81.4l2-1.9c2.8-2.7,3.1-2.8,7-2.7c2.7,0.1,4.2,0.4,6.7,1.5c4.1,1.7,8.9,4.9,13.1,8.8l3.4,3.1
		l0.2,10.3c0.1,5.7,0.4,25,0.7,42.8c0.2,17.9,0.7,51.3,1.1,74.2c0.4,22.9,0.7,52.2,0.7,65C377.6,603.6,377.9,601,374,608.9z
		 M364.3,248.5c-5.6-2.6-9.4-3.7-13.7-4.2c-2.1-0.2-2.6-0.4-1.8-0.6c1.4-0.4,2.2-0.4,5.5,0c4.3,0.5,8.3,2,18,6.5
		c4.9,2.2,9,4.1,9.3,4.1s0.3,0.1,0.2,0.2C381.1,255.4,372.5,252.3,364.3,248.5z M383,439.5l-0.1,29l-0.8-5.9
		c-0.4-3.3-0.9-9.4-1-13.7c-0.3-8.6,0.2-47.3,0.7-48.9c0.2-0.7,0.4,1,0.8,4.7C382.9,408.9,383.1,418.1,383,439.5z"/>
	<path class="st1" d="M190.9,394.9h-4.2c-4,0-4.3,0.1-6.5,1.3c-3,1.7-9.3,6.2-9.3,6.6c0,0.2,0.9,0.7,2,1.1
		c5.6,2.1,11.6,5.8,14.1,8.8c2.2,2.6,4.3,7,5.4,11.3c1,3.9,1,4.2,1.4,29.5c1,66.5,1.5,83.1,2.5,85.7c0.2,0.6,0.6,6.7,0.8,13.6
		c0.2,6.9,0.4,12.7,0.4,12.9c0,0.2,0.2,0.7,0.4,1c0.3,0.5,0.6,0.3,1.8-0.9c0.9-1,2.1-1.6,3.4-2c1.1-0.3,2.7-0.7,3.5-0.9
		c0.8-0.2,1.8-0.7,2.2-1.2c0.9-1,1.7-1,2.2,0c0.6,1.1,1.2,1,5-0.2c2.8-0.9,3.3-1.3,3.8-2.4c0.4-0.9,0.6-6.5,0.9-21.3
		c0.4-21.2,0.3-21.2,1.2,0l0.3,7.4l0.4-3.3c0.4-3.8,0.5-225.4,0-229c-0.2-1.6-0.4-2.1-0.6-1.7c-0.4,0.7-1.2,7.4-1.4,12
		c-0.1,1.8-0.1-4.3,0-13.5c0.1-12.6,0.3-17.7,0.8-20.4c0.8-4.7,1.3-14.1,0.7-13.5c-0.4,0.4-2.9,8-2.9,8.9c0,0.3-0.9,3.2-2.1,6.4
		c-1.1,3.3-2.3,6.9-2.6,8c-0.5,2-0.5,2-0.6,0.7c0-0.8,0.2-3.1,0.6-5.1c0.3-2,1.1-7.2,1.6-11.6c2.2-17,3.1-20.2,9.6-34.4
		c3.3-7.2,3.4-8.3,0.8-6.3c-0.8,0.6-1.8,1.8-2.3,2.8l-0.9,1.7l0-1.6c0-0.8-0.2-1.5-0.4-1.5c-0.7,0-6.2,3.2-10.1,6
		c-2.2,1.6-8.9,6.2-14.9,10.2c-12.5,8.4-14.5,9.9-15.1,11.2c-0.7,1.6-0.5,3.6,0.5,4.8c0.8,1,1.3,1.1,4.7,1.4c2.9,0.2,4,0.5,4.3,1
		c0.7,0.9,0.9,16.6,1.2,68.9c0.1,21.3,0.4,40.4,0.6,42.6c0.4,4.5,1,6.2,2.9,8.6l1.3,1.6l-3.8-2.6L190.9,394.9z M201.2,541.3
		c-0.7-4.7-1.3-13.9-1-15.5l0.3-1.6l0.3,1.4c0.2,0.8,0.4,5.2,0.5,9.8C201.5,540.9,201.4,542.9,201.2,541.3z M200.9,444.4
		c0.4-2.7,0.9-4.5,1-4.1c0.1,0.4,0,9.6-0.3,20.4c-0.2,10.8-0.5,19.7-0.6,19.7c-0.4,0.4-0.8-10.9-0.8-20.4
		C200.1,451.4,200.3,448.4,200.9,444.4z"/>
	<path class="st1" d="M119.1,397.4c0.1-0.2,0.9,0.9,1.7,2.4c2.5,4.6,3.2,5.7,3.4,5.2c0.2-0.7-4.7-19.9-8.3-32.1
		c-0.4-1.4-0.9-0.7-1.6,2.4c-0.7,3.5-0.6,7.2,0.5,11.3c0.3,1.3,0.5,2.5,0.4,2.6c-0.1,0.1-0.7-0.6-1.3-1.5c-0.7-0.9-1.3-1.7-1.5-1.7
		c-0.4,0-1.3,2.1-4.8,10.4c-3.7,8.9-3.7,9.6,0.2,5.9c2.5-2.5,2.8-2.3,0.8,0.4c-1.7,2.3-3.1,5.1-3.1,6.1c0,0.4,1.5,2.2,3.4,4
		c1.8,1.8,3.9,4.2,4.5,5.2l1.1,2l-2.3-2.1c-5.4-4.9-5.8-4.4-1.7,2.4c3.6,6.1,5.6,9,6.2,9c0.6,0,2.8-4.9,4.5-10
		c1.4-4.1,1.7-5.5,1.7-8.2c0-2.9-0.2-3.8-1.9-8.3C119.8,400.1,119,397.7,119.1,397.4z"/>
	<path class="st1" d="M757.7,397.4c0.1-0.2,0.9,0.9,1.7,2.4c2.5,4.6,3.2,5.7,3.4,5.2c0.4-1.1-8.2-32.8-8.9-32.8
		c-0.2,0-0.6,1.4-1,3.1c-0.8,3.4-0.7,7.1,0.4,11.3c0.3,1.3,0.5,2.5,0.4,2.6c-0.1,0.1-0.8-0.7-1.6-1.7l-1.4-1.8l-1.1,2.6
		c-2.1,4.6-5.9,14-6.2,15.1c-0.4,1.6,0.3,1.4,2.6-0.7c1.1-1,2.1-1.8,2.2-1.8c0.1,0-0.4,1.1-1.3,2.3c-2,2.9-2.9,4.8-2.9,5.7
		c0,0.4,1.6,2.3,3.6,4.3c2,1.9,4,4.3,4.5,5.3l1,1.8l-2.4-2.2c-5.5-5-5.9-4.4-1.8,2.4c4,6.7,5.7,9.1,6.3,8.9c0.7-0.2,2.6-4.3,4.4-9.7
		c1.5-4.3,1.8-5.6,1.8-8.4c0-2.9-0.2-3.8-1.9-8.3C758.5,400.1,757.6,397.7,757.7,397.4z"/>
	<path class="st1" d="M101.3,411.4c-0.7-1.1-2.8-3-7.6-6.5c-3.7-2.7-6.7-5-6.7-5.1c0-0.2,2.1,1,6.4,3.6c3.6,2.2,5.9,3.3,6.2,3
		c0.5-0.5-6.7-6.9-11.4-10c-7.7-5.1-15-8.5-15-7c0,0.4,1.3,2.1,4.5,5.7l2.7,3l-2-1.3c-1.5-0.9-2.1-1.1-2.2-0.7
		c-0.1,0.3,1.1,4.6,2.5,9.5c2.1,7.2,3,9.4,4.2,11.2c0.9,1.2,1.8,2.3,2.1,2.4c0.7,0.2,0.6-2.3-0.4-6.5c-0.5-2-0.8-3.8-0.7-3.8
		c0.1-0.1,1.6,2.1,3.4,5c1.8,2.9,3.9,6.5,4.9,7.9l1.7,2.7l5.4,2.1c2.9,1.2,5.8,2.1,6.2,2.1c0.8,0,0.8-0.2,0.6-1.6
		C105.4,423.8,102.2,412.9,101.3,411.4z"/>
	<path class="st1" d="M739.9,411.4c-0.7-1.1-2.8-3-7.6-6.5c-3.7-2.7-6.7-5-6.7-5.1c0-0.2,1.8,0.8,6.7,3.8c6.7,4,7.4,3.9,2.8-0.6
		c-6.7-6.5-23.5-16.2-23.5-13.6c0,0.4,1.1,1.8,4.7,5.9l2.5,2.8l-2-1.3c-1.5-0.9-2-1.1-2.1-0.7c-0.1,0.3,1.1,4.6,2.6,9.5
		c2.1,7,3,9.4,4.2,11.2c0.8,1.2,1.8,2.3,2,2.4c0.7,0.2,0.6-2.3-0.4-6.5c-0.5-2-0.8-3.8-0.7-3.8c0.1-0.1,1.2,1.4,2.4,3.4
		c1.2,2,3.4,5.5,4.8,7.9l2.7,4.3l5.3,2.1c2.9,1.2,5.7,2.2,6.3,2.2c0.9,0,0.9-0.1,0.7-1.6C744.1,423.9,740.8,412.9,739.9,411.4z"/>
	<path class="st1" d="M151.2,397.5l-2.1,1.3l2.2-2.5c1.2-1.4,2.8-3.2,3.5-4c2.4-2.7,1.3-3.3-2.9-1.5c-5,2-16.6,10-20.6,14.3
		c-3.2,3.2-1.6,2.8,5.6-1.6c7.5-4.5,7.2-4.1-1.3,2.2c-4.7,3.5-7,5.4-7.5,6.5c-1.6,2.8-5.4,16.7-4.7,17.3c0.2,0.2,2.2-0.4,4.4-1.2
		c8.4-3.2,7.3-2.2,12.7-11c2.6-4.3,4.9-7.7,5-7.6c0.1,0.1-0.2,1.8-0.7,3.8c-0.9,3.9-1.1,6.6-0.4,6.6c0.5,0,2.8-3.1,3.6-4.9
		c0.8-1.8,5.7-18.6,5.6-18.8C153.4,396.3,152.4,396.8,151.2,397.5z"/>
	<path class="st1" d="M793,392.8c1-1.1,1.8-2.3,1.8-2.6c0-0.7-1.6-0.5-4.2,0.5c-3.2,1.3-7,3.6-12.3,7.5c-4.9,3.6-10.4,8.4-9.9,8.9
		c0.3,0.3,2.5-0.8,6.2-3c4.3-2.6,6.4-3.8,6.4-3.6c0,0.1-3,2.4-6.7,5.1c-4.7,3.5-6.9,5.4-7.5,6.5c-1.5,2.7-5.4,16.7-4.7,17.3
		c0.2,0.2,2.4-0.4,4.8-1.4c7.8-3,7.1-2.4,12.1-10.7c2.5-4,4.7-7.6,5-7.9c0.3-0.4,0.2,0.8-0.4,3.5c-1.1,4.5-1.3,7.2-0.4,7
		c0.2-0.1,1.2-1.2,2.1-2.5c1.3-1.9,2.1-4,4.3-11.6c1.5-5.2,2.7-9.4,2.6-9.5c-0.1-0.1-1,0.4-2.1,1l-2,1.1l1.6-1.8
		C790.5,395.7,792,394,793,392.8z"/>
	<path class="st1" d="M240.5,596.4c-10.8-7.3-21.5-12.4-31.4-14.9c-4.9-1.2-15.2-1.4-19.8-0.4c-12.2,2.7-22.1,9.9-29,20.9
		c-3.8,6.3-5.7,10.8-6.3,15.5c-1.1,8.9,1.6,15.9,7.6,19.4c1.8,1,7.5,2.9,7.8,2.5c0.1-0.1-0.9-0.9-2.2-1.7c-3-1.8-6-5-7.2-7.5
		c-0.6-1.4-0.9-3-1-5.8c-0.2-6.1,1.2-10.1,5.2-14.4c3.7-4,8.2-6.2,13.6-6.6l3-0.2l-4.3,1.4c-5,1.7-8.1,3.5-10.7,6.2
		c-1.7,1.8-4,5.2-4,6c0,0.2,1.1-0.7,2.4-1.8c4.9-4.5,11.2-6.3,20.1-6c5.9,0.2,8.4,0.9,15,4.3c6.1,3.2,13,9.6,17.2,16.2
		c2.9,4.5,3.6,4.8,6,2.5c2.3-2.3,22-29,22.6-30.7C245.6,600.3,244.3,598.9,240.5,596.4z M203.1,606.7c-0.1,0.1-2.4-0.6-5-1.5
		c-2.7-0.9-5.5-1.6-6.3-1.6s-1.7-0.2-2-0.4c-1.1-0.7,6.2,0,8.3,0.9C200.7,605.1,203.3,606.5,203.1,606.7z M207,585.4
		c-2.2-0.3-7.2-0.6-11.1-0.6c-6.7,0-7-0.1-5.3-0.6c2.6-0.8,14.9-0.5,17.9,0.4C211.8,585.6,211.3,585.9,207,585.4z"/>
	<path class="st1" d="M575.9,618.1c-0.5-0.3-1.6,0.6-5.6,4.5c-2.7,2.7-4.9,4.8-5,4.7c-0.1-0.1-0.7-1.3-1.2-2.5
		c-2.2-4.8-6.7-10.3-10.1-12c-4.5-2.3-11-3.2-15.9-2c-7.7,1.8-13.2,4.7-21.2,11.4c-8.2,6.9-21.9,22.2-28.9,32.3
		c-2.7,3.8-6.4,10.4-6.4,11.2c0,1.1,1,0.1,5.2-5.4c5.9-7.7,10.7-13,14.8-16.3c5.6-4.5,10.3-6.6,15.9-7.1l2.8-0.2l-3.1,0.8
		c-4.4,1.2-9.1,3.6-12.7,6.4c-3,2.4-5.3,4.6-4.8,4.6c0.2,0,2.3-1.1,4.9-2.4c5.3-2.8,7.8-3.6,12.5-4.2c5.9-0.7,11.6,0.7,17,4.1
		c5.2,3.3,8.5,8.3,9.9,14.9c0.7,3.7,1.2,4.7,2,4.7c0.7,0,4.3-3.7,17-18c12.6-14,16.7-18.8,16.7-19.3
		C579.8,627.4,576.4,618.5,575.9,618.1z M556.5,626.1c-4.4-6.7-5.5-7.9-8.6-9.4l-3.1-1.6l2,0.2c1.1,0.2,2.9,0.7,4,1.3
		c2.4,1.3,4.6,4.1,5.9,7.7C558,627.8,557.9,628.3,556.5,626.1z"/>
</g>
</svg>
