<svg width="1024" height="1024" viewBox="0 0 1024 1024" fill="none" xmlns="http://www.w3.org/2000/svg">
<path d="M869.815 512C869.815 709.616 709.615 869.815 511.999 869.815C314.383 869.815 154.184 709.616 154.184 512C154.184 314.384 314.383 154.184 511.999 154.184C709.615 154.184 869.815 314.384 869.815 512Z" stroke="#20B358" stroke-width="30"/>
<path d="M843.718 513.243C843.718 679.232 708.889 813.893 542.446 813.893C376.002 813.893 241.174 679.232 241.174 513.243C241.174 347.253 376.002 212.592 542.446 212.592C708.889 212.592 843.718 347.253 843.718 513.243Z" stroke="#20B358" stroke-width="30"/>
<path d="M818.863 515.728C818.863 651.608 708.983 761.699 573.514 761.699C438.044 761.699 328.164 651.608 328.164 515.728C328.164 379.848 438.044 269.757 573.514 269.757C708.983 269.757 818.863 379.848 818.863 515.728Z" stroke="#20B358" stroke-width="30"/>
<path d="M794.009 513.864C794.009 618.482 709.199 703.291 604.582 703.291C499.964 703.291 415.155 618.482 415.155 513.864C415.155 409.246 499.964 324.437 604.582 324.437C709.199 324.437 794.009 409.246 794.009 513.864Z" stroke="#20B358" stroke-width="30"/>
</svg>
